<svg width="180" height="188" viewBox="0 0 180 188" fill="none" xmlns="http://www.w3.org/2000/svg">
<path fill-rule="evenodd" clip-rule="evenodd" d="M89.1946 0.00363999C111.635 0.376957 119.332 29.7425 135.055 45.7685C150.494 61.5052 175.239 69.951 179.118 91.6598C183.393 115.588 171.612 139.777 155.022 157.532C137.867 175.89 114.27 189.338 89.1946 187.894C65.1066 186.507 46.9149 168.087 30.5301 150.364C14.9926 133.557 -2.18554 114.428 0.228274 91.6598C2.53302 69.9206 26.5623 59.8983 41.7836 44.2168C57.4304 28.097 66.7406 -0.369908 89.1946 0.00363999Z" fill="#FFA07A" fill-opacity="0.3"/>
<path fill-rule="evenodd" clip-rule="evenodd" d="M52.3463 62.0017C58.2552 61.9477 64.5238 63.1637 68.4688 67.5855C72.2766 71.8536 72.2524 78.0764 71.7846 83.7898C71.363 88.9401 69.4939 93.7228 66.0174 97.5302C62.3628 101.533 57.7483 104.896 52.3463 105.078C46.7963 105.265 41.0599 102.948 37.7247 98.4856C34.6698 94.3982 36.6377 88.8979 36.4357 83.7898C36.2178 78.28 33.2681 72.3226 36.5142 67.8774C39.9745 63.1388 46.4983 62.0551 52.3463 62.0017Z" fill="#00BFFF" fill-opacity="0.3"/>
</svg>
