<svg width="18" height="18" viewBox="0 0 18 18" fill="none" xmlns="http://www.w3.org/2000/svg">
<path d="M16.2364 12.2748L13.6912 11.9842C13.392 11.949 13.0886 11.9822 12.804 12.0811C12.5194 12.18 12.2609 12.3422 12.0479 12.5553L10.2042 14.3991C7.35988 12.9521 5.0479 10.6401 3.60092 7.79573L5.45465 5.94199C5.88552 5.51112 6.09594 4.90991 6.0258 4.29868L5.73522 1.77358C5.67862 1.28468 5.4441 0.833708 5.07635 0.506618C4.70861 0.179528 4.23336 -0.000801689 3.7412 2.67936e-06H2.00771C0.875436 2.67936e-06 -0.0664603 0.941903 0.00368089 2.07419C0.53475 10.6315 7.37853 17.4652 15.9257 17.9963C17.058 18.0665 17.9999 17.1246 17.9999 15.9923V14.2588C18.0099 13.2467 17.2484 12.395 16.2364 12.2748Z" fill="black"/>
</svg>
