<svg width="144" height="58" viewBox="0 0 144 58" fill="none" xmlns="http://www.w3.org/2000/svg">
<mask id="path-1-outside-1_135_193" maskUnits="userSpaceOnUse" x="0.486084" y="0.893982" width="144" height="57" fill="black">
<rect fill="white" x="0.486084" y="0.893982" width="144" height="57"/>
<path d="M2.99208 12.222L2.94808 12.09C2.87475 11.7526 2.92608 11.4373 3.10208 11.144C3.29275 10.8506 3.55675 10.6673 3.89408 10.594C7.42875 9.80198 10.3694 9.40598 12.7161 9.40598C15.0041 9.40598 16.6981 9.84598 17.7981 10.726C18.9128 11.5913 19.4701 12.7426 19.4701 14.18C19.4701 16.2773 18.5314 18.008 16.6541 19.372C14.7914 20.7213 12.0341 21.594 8.38208 21.99C8.03008 22.034 7.70742 21.946 7.41408 21.726C7.13542 21.5206 6.95942 21.242 6.88608 20.89L6.86408 20.714C6.80542 20.3913 6.86408 20.098 7.04008 19.834C7.23075 19.5553 7.49475 19.394 7.83208 19.35C10.7948 18.954 12.9874 18.3233 14.4101 17.458C15.8328 16.578 16.5441 15.5366 16.5441 14.334C16.5441 12.8086 15.2241 12.046 12.5841 12.046C10.7214 12.046 8.03008 12.42 4.51008 13.168C4.17275 13.2413 3.85008 13.19 3.54208 13.014C3.24875 12.8233 3.06542 12.5593 2.99208 12.222ZM7.30408 3.99398C9.81208 4.30198 12.4008 4.49265 15.0701 4.56598C15.4074 4.58065 15.7008 4.71265 15.9501 4.96198C16.1994 5.19665 16.3241 5.48265 16.3241 5.81998V5.97398C16.3241 6.31131 16.1994 6.60465 15.9501 6.85398C15.7154 7.10331 15.4294 7.22065 15.0921 7.20598C12.4961 7.13265 9.79008 6.91998 6.97408 6.56798C6.63675 6.52398 6.35808 6.36265 6.13808 6.08398C5.93275 5.80531 5.85208 5.49732 5.89608 5.15998L5.91808 5.07198C5.96208 4.73465 6.11608 4.46331 6.38008 4.25798C6.65875 4.03798 6.96675 3.94998 7.30408 3.99398Z"/>
<path d="M35.7941 19.724C35.9994 19.2253 36.1021 18.822 36.1021 18.514C36.1021 18.0593 35.9261 17.7146 35.5741 17.48C35.2221 17.2306 34.5914 17.106 33.6821 17.106C32.9488 17.106 32.3841 17.2306 31.9881 17.48C31.6068 17.7146 31.4161 18.008 31.4161 18.36C31.4161 19.3866 32.6628 19.9 35.1561 19.9H35.5521C35.6548 19.9 35.7354 19.8413 35.7941 19.724ZM28.4901 14.708C28.1968 14.84 27.9034 14.8546 27.6101 14.752C27.3314 14.6493 27.1188 14.4586 26.9721 14.18C26.8254 13.9013 26.7961 13.608 26.8841 13.3C26.9721 12.9773 27.1554 12.7353 27.4341 12.574L36.7181 6.96398L36.7401 6.94198L36.7181 6.91998H29.1721C28.8494 6.91998 28.5634 6.80265 28.3141 6.56798C28.0794 6.33331 27.9621 6.04731 27.9621 5.70998C27.9621 5.37265 28.0794 5.08665 28.3141 4.85198C28.5634 4.61731 28.8494 4.49998 29.1721 4.49998H40.7221C41.0594 4.49998 41.3528 4.62465 41.6021 4.87398C41.8661 5.10865 41.9981 5.39465 41.9981 5.73198C42.0274 6.53865 41.6681 7.15465 40.9201 7.57998L34.7821 10.99V11.012H34.8261C35.7941 10.8213 36.6814 10.726 37.4881 10.726C39.5854 10.726 41.1694 11.1586 42.2401 12.024C43.3254 12.8893 43.8681 14.1213 43.8681 15.72C43.8681 17.8026 43.1128 19.416 41.6021 20.56C40.0914 21.6893 37.9428 22.254 35.1561 22.254C32.9708 22.254 31.3354 21.9166 30.2501 21.242C29.1648 20.582 28.6221 19.6213 28.6221 18.36C28.6221 17.392 29.0841 16.578 30.0081 15.918C30.9321 15.2433 32.2081 14.906 33.8361 14.906C35.5081 14.906 36.7181 15.1846 37.4661 15.742C38.2141 16.2993 38.5881 17.1206 38.5881 18.206C38.5881 18.47 38.5514 18.8 38.4781 19.196C38.4634 19.24 38.4708 19.2766 38.5001 19.306C38.5441 19.3206 38.5808 19.3206 38.6101 19.306C40.0621 18.6753 40.7881 17.568 40.7881 15.984C40.7881 14.972 40.4288 14.2093 39.7101 13.696C39.0061 13.1826 37.8768 12.926 36.3221 12.926C33.6968 12.926 31.0861 13.52 28.4901 14.708Z"/>
<path d="M56.9801 19.834C57.9481 19.834 58.6154 19.6726 58.9821 19.35C59.3488 19.0126 59.5394 18.3893 59.5541 17.48C59.5541 17.3626 59.4954 17.282 59.3781 17.238C58.5861 16.93 57.8821 16.776 57.2661 16.776C56.4008 16.776 55.7774 16.8933 55.3961 17.128C55.0294 17.3626 54.8461 17.722 54.8461 18.206C54.8461 18.7193 55.0294 19.1226 55.3961 19.416C55.7774 19.6946 56.3054 19.834 56.9801 19.834ZM52.0741 8.01998C51.7368 8.01998 51.4434 7.89531 51.1941 7.64598C50.9448 7.39665 50.8201 7.10332 50.8201 6.76598C50.8201 6.42865 50.9448 6.14265 51.1941 5.90798C51.4434 5.65865 51.7368 5.53398 52.0741 5.53398H59.3561C59.4881 5.53398 59.5541 5.46798 59.5541 5.33598V4.65398C59.5541 4.31665 59.6714 4.02331 59.9061 3.77398C60.1554 3.52465 60.4488 3.39998 60.7861 3.39998H61.0941C61.4314 3.39998 61.7174 3.52465 61.9521 3.77398C62.2014 4.02331 62.3261 4.31665 62.3261 4.65398V5.33598C62.3261 5.46798 62.3921 5.53398 62.5241 5.53398H66.7261C67.0634 5.53398 67.3568 5.65865 67.6061 5.90798C67.8554 6.14265 67.9801 6.42865 67.9801 6.76598C67.9801 7.10332 67.8554 7.39665 67.6061 7.64598C67.3568 7.89531 67.0634 8.01998 66.7261 8.01998H62.5241C62.3921 8.01998 62.3261 8.07865 62.3261 8.19598V9.73598C62.3261 9.86798 62.3921 9.93398 62.5241 9.93398H65.9561C66.2934 9.93398 66.5794 10.0513 66.8141 10.286C67.0488 10.5206 67.1661 10.8066 67.1661 11.144C67.1661 11.4813 67.0488 11.7746 66.8141 12.024C66.5794 12.2586 66.2934 12.376 65.9561 12.376H62.5241C62.3921 12.376 62.3261 12.442 62.3261 12.574V15.742C62.3261 15.8593 62.3774 15.9546 62.4801 16.028C63.8001 16.7906 65.1714 17.788 66.5941 19.02C66.8581 19.24 66.9974 19.526 67.0121 19.878C67.0268 20.23 66.9168 20.5306 66.6821 20.78L66.6161 20.846C66.3814 21.0953 66.0881 21.2273 65.7361 21.242C65.3988 21.2713 65.1054 21.1686 64.8561 20.934C63.9321 20.1273 63.1034 19.46 62.3701 18.932C62.2674 18.8586 62.2014 18.8806 62.1721 18.998C61.9374 20.1713 61.4021 21.0146 60.5661 21.528C59.7448 22.056 58.5494 22.32 56.9801 22.32C55.4254 22.32 54.2008 21.9533 53.3061 21.22C52.4261 20.5013 51.9861 19.4966 51.9861 18.206C51.9861 17.0473 52.3894 16.116 53.1961 15.412C54.0174 14.6933 55.2788 14.334 56.9801 14.334C57.8161 14.334 58.6154 14.444 59.3781 14.664C59.4954 14.6933 59.5541 14.6493 59.5541 14.532V12.574C59.5541 12.442 59.4881 12.376 59.3561 12.376H52.8441C52.5068 12.376 52.2208 12.2586 51.9861 12.024C51.7514 11.7893 51.6341 11.5033 51.6341 11.166C51.6341 10.8286 51.7514 10.5426 51.9861 10.308C52.2208 10.0586 52.5068 9.93398 52.8441 9.93398H59.3561C59.4881 9.93398 59.5541 9.86798 59.5541 9.73598V8.21798C59.5541 8.08598 59.4881 8.01998 59.3561 8.01998H52.0741Z"/>
<path d="M74.8661 7.51398C74.5287 7.51398 74.2354 7.38931 73.9861 7.13998C73.7514 6.89065 73.6341 6.59732 73.6341 6.25998C73.6341 5.92265 73.7514 5.62932 73.9861 5.37998C74.2354 5.13065 74.5287 5.00598 74.8661 5.00598H81.7961C81.9281 5.00598 81.9941 4.94731 81.9941 4.82998V4.12598C81.9941 3.78865 82.1114 3.50265 82.3461 3.26798C82.5954 3.01865 82.8887 2.89398 83.2261 2.89398H83.7541C84.0914 2.89398 84.3774 3.01865 84.6121 3.26798C84.8614 3.50265 84.9861 3.78865 84.9861 4.12598V4.82998C84.9861 4.94731 85.0521 5.00598 85.1841 5.00598H92.3341C92.6714 5.00598 92.9574 5.13065 93.1921 5.37998C93.4414 5.62932 93.5661 5.92265 93.5661 6.25998C93.5661 6.59732 93.4414 6.89065 93.1921 7.13998C92.9574 7.38931 92.6714 7.51398 92.3341 7.51398H85.1841C85.0521 7.51398 84.9861 7.57265 84.9861 7.68998V9.60398C84.9861 9.72131 85.0521 9.77998 85.1841 9.77998H91.2561C91.5934 9.77998 91.8868 9.90465 92.1361 10.154C92.3854 10.4033 92.5101 10.6966 92.5101 11.034V17.7C92.5101 18.3013 92.4954 18.778 92.4661 19.13C92.4514 19.4673 92.4001 19.79 92.3121 20.098C92.2241 20.3913 92.1214 20.604 92.0041 20.736C91.8867 20.868 91.6961 20.978 91.4321 21.066C91.1681 21.1686 90.8821 21.2273 90.5741 21.242C90.2807 21.2713 89.8774 21.286 89.3641 21.286C89.2761 21.286 88.7774 21.2713 87.8681 21.242C87.5161 21.2273 87.2154 21.0953 86.9661 20.846C86.7314 20.5966 86.5994 20.296 86.5701 19.944C86.5554 19.6213 86.6654 19.3353 86.9001 19.086C87.1348 18.8366 87.4207 18.7266 87.7581 18.756L88.7701 18.8C89.1954 18.8 89.4447 18.756 89.5181 18.668C89.6061 18.5653 89.6501 18.2646 89.6501 17.766V12.464C89.6501 12.332 89.5914 12.266 89.4741 12.266H85.1841C85.0521 12.266 84.9861 12.332 84.9861 12.464V22.034C84.9861 22.3713 84.8614 22.6573 84.6121 22.892C84.3774 23.1413 84.0914 23.266 83.7541 23.266H83.2261C82.8887 23.266 82.5954 23.1413 82.3461 22.892C82.1114 22.6573 81.9941 22.3713 81.9941 22.034V12.464C81.9941 12.332 81.9281 12.266 81.7961 12.266H77.7481C77.6161 12.266 77.5501 12.332 77.5501 12.464V20.054C77.5501 20.3913 77.4254 20.6846 77.1761 20.934C76.9267 21.1686 76.6334 21.286 76.2961 21.286H75.9441C75.6068 21.286 75.3134 21.1686 75.0641 20.934C74.8147 20.6846 74.6901 20.3913 74.6901 20.054V11.034C74.6901 10.6966 74.8147 10.4033 75.0641 10.154C75.3134 9.90465 75.6068 9.77998 75.9441 9.77998H81.7961C81.9281 9.77998 81.9941 9.72131 81.9941 9.60398V7.68998C81.9941 7.57265 81.9281 7.51398 81.7961 7.51398H74.8661Z"/>
<path d="M106.502 7.51398C104.786 7.88065 103.437 8.66532 102.454 9.86798C101.471 11.056 100.98 12.5153 100.98 14.246C100.98 15.3606 101.207 16.3506 101.662 17.216C102.117 18.0813 102.549 18.514 102.96 18.514C103.165 18.514 103.378 18.4186 103.598 18.228C103.818 18.0226 104.06 17.6633 104.324 17.15C104.603 16.622 104.867 15.9693 105.116 15.192C105.38 14.4 105.644 13.3586 105.908 12.068C106.187 10.7626 106.436 9.29598 106.656 7.66798C106.671 7.62398 106.656 7.58732 106.612 7.55798C106.583 7.51398 106.546 7.49931 106.502 7.51398ZM102.96 21.286C101.772 21.286 100.679 20.604 99.6821 19.24C98.6848 17.876 98.1861 16.2113 98.1861 14.246C98.1861 11.4006 99.1541 9.09065 101.09 7.31598C103.026 5.54131 105.556 4.65398 108.68 4.65398C111.203 4.65398 113.285 5.44598 114.928 7.02998C116.585 8.61398 117.414 10.6306 117.414 13.08C117.414 15.3826 116.879 17.282 115.808 18.778C114.752 20.2593 113.3 21.2053 111.452 21.616C111.1 21.6893 110.777 21.6233 110.484 21.418C110.205 21.2126 110.029 20.934 109.956 20.582L109.912 20.384C109.839 20.0613 109.897 19.7606 110.088 19.482C110.279 19.2033 110.535 19.0126 110.858 18.91C113.366 18.1326 114.62 16.1893 114.62 13.08C114.62 11.584 114.173 10.3226 113.278 9.29598C112.398 8.25465 111.239 7.61665 109.802 7.38198C109.67 7.35265 109.589 7.40398 109.56 7.53598C109.267 9.75065 108.937 11.6793 108.57 13.322C108.203 14.95 107.815 16.27 107.404 17.282C107.008 18.2793 106.561 19.086 106.062 19.702C105.563 20.3033 105.072 20.7213 104.588 20.956C104.104 21.176 103.561 21.286 102.96 21.286Z"/>
<path d="M3.74008 46.96C3.40275 46.96 3.10942 46.8353 2.86008 46.586C2.61075 46.3367 2.48608 46.0433 2.48608 45.706V40.8C2.48608 40.4626 2.61075 40.1693 2.86008 39.92C3.10942 39.6707 3.40275 39.546 3.74008 39.546H9.19608C9.32808 39.546 9.39408 39.4873 9.39408 39.37V37.5C9.39408 37.1626 9.51142 36.8693 9.74608 36.62C9.99542 36.3706 10.2888 36.246 10.6261 36.246H11.0661C11.4034 36.246 11.6968 36.3706 11.9461 36.62C12.1954 36.8693 12.3201 37.1626 12.3201 37.5V39.37C12.3201 39.4873 12.3861 39.546 12.5181 39.546H18.2601C18.5974 39.546 18.8908 39.6707 19.1401 39.92C19.3894 40.1693 19.5141 40.4626 19.5141 40.8V43.66C19.5141 46.96 18.5388 49.5633 16.5881 51.47C14.6521 53.362 11.7701 54.4913 7.94208 54.858C7.59008 54.8873 7.27475 54.792 6.99608 54.572C6.73208 54.352 6.57075 54.066 6.51208 53.714L6.46808 53.538C6.42408 53.2153 6.50475 52.922 6.71008 52.658C6.93008 52.394 7.20875 52.2473 7.54608 52.218C10.6408 51.8953 12.9141 51.0373 14.3661 49.644C15.8328 48.236 16.5661 46.2413 16.5661 43.66V42.318C16.5661 42.186 16.5074 42.12 16.3901 42.12H5.54408C5.41208 42.12 5.34608 42.186 5.34608 42.318V45.706C5.34608 46.0433 5.22142 46.3367 4.97208 46.586C4.73742 46.8353 4.45142 46.96 4.11408 46.96H3.74008Z"/>
<path d="M29.4361 54.132C29.1134 54.132 28.8348 54.0147 28.6001 53.78C28.3654 53.5453 28.2481 53.2666 28.2481 52.944C28.2481 52.6066 28.3654 52.3206 28.6001 52.086C28.8348 51.8513 29.1134 51.734 29.4361 51.734H33.6161C33.7481 51.734 33.8141 51.6753 33.8141 51.558V44.122C33.8141 44.0046 33.7481 43.946 33.6161 43.946H29.9641C29.6414 43.946 29.3628 43.8286 29.1281 43.594C28.8934 43.3593 28.7761 43.0733 28.7761 42.736C28.7761 42.4133 28.8934 42.1346 29.1281 41.9C29.3628 41.6653 29.6414 41.548 29.9641 41.548H40.4361C40.7588 41.548 41.0374 41.6653 41.2721 41.9C41.5068 42.1346 41.6241 42.4133 41.6241 42.736C41.6241 43.0733 41.5068 43.3593 41.2721 43.594C41.0374 43.8286 40.7588 43.946 40.4361 43.946H36.7841C36.6521 43.946 36.5861 44.0046 36.5861 44.122V51.558C36.5861 51.6753 36.6521 51.734 36.7841 51.734H40.9641C41.2868 51.734 41.5654 51.8513 41.8001 52.086C42.0348 52.3206 42.1521 52.6066 42.1521 52.944C42.1521 53.2666 42.0348 53.5453 41.8001 53.78C41.5654 54.0147 41.2868 54.132 40.9641 54.132H29.4361Z"/>
<path d="M51.5461 41.24C51.2088 41.24 50.9154 41.1153 50.6661 40.866C50.4314 40.6166 50.3141 40.3233 50.3141 39.986V39.7C50.3141 39.3626 50.4314 39.0693 50.6661 38.82C50.9154 38.5706 51.2088 38.446 51.5461 38.446H63.8221C63.8661 38.446 63.8954 38.4313 63.9101 38.402C63.9394 38.358 63.9394 38.3213 63.9101 38.292C63.8661 38.2333 63.8148 38.138 63.7561 38.006C63.6974 37.874 63.6461 37.7713 63.6021 37.698C63.4408 37.4193 63.4114 37.126 63.5141 36.818C63.6168 36.51 63.8074 36.2826 64.0861 36.136C64.3648 35.9893 64.6581 35.9673 64.9661 36.07C65.2741 36.158 65.5014 36.3413 65.6481 36.62C65.8388 36.972 66.1101 37.5 66.4621 38.204C66.8581 38.996 67.0341 39.7953 66.9901 40.602C66.7554 44.9433 65.5601 48.2653 63.4041 50.568C61.2481 52.8706 58.0288 54.308 53.7461 54.88C53.3941 54.924 53.0788 54.836 52.8001 54.616C52.5214 54.4106 52.3454 54.1393 52.2721 53.802L52.2281 53.538C52.1694 53.2153 52.2354 52.922 52.4261 52.658C52.6168 52.3793 52.8808 52.218 53.2181 52.174C56.6501 51.7046 59.2021 50.6267 60.8741 48.94C62.5608 47.2533 63.5508 44.7453 63.8441 41.416C63.8441 41.2986 63.7854 41.24 63.6681 41.24H51.5461ZM69.0361 36.334C69.1094 36.4806 69.2121 36.6933 69.3441 36.972C69.4908 37.2506 69.5934 37.4486 69.6521 37.566C69.7988 37.8593 69.8208 38.1526 69.7181 38.446C69.6154 38.7393 69.4174 38.9593 69.1241 39.106C68.8308 39.2526 68.5301 39.2746 68.2221 39.172C67.9288 39.0693 67.7014 38.8713 67.5401 38.578C67.4081 38.314 67.1954 37.918 66.9021 37.39C66.7554 37.0966 66.7261 36.8033 66.8141 36.51C66.9168 36.202 67.1148 35.9746 67.4081 35.828C67.7014 35.6813 68.0094 35.6593 68.3321 35.762C68.6548 35.8646 68.8894 36.0553 69.0361 36.334Z"/>
<path d="M74.7121 54.968L74.2941 54.462C73.7954 53.846 73.7001 53.1493 74.0081 52.372C74.8734 50.1866 75.3061 47.158 75.3061 43.286V37.874C75.3061 37.5366 75.4234 37.2433 75.6581 36.994C75.9074 36.7446 76.2008 36.62 76.5381 36.62H91.6961C92.0334 36.62 92.3194 36.7446 92.5541 36.994C92.8034 37.2433 92.9281 37.5366 92.9281 37.874V40.778C92.9281 41.1153 92.8034 41.4086 92.5541 41.658C92.3194 41.9073 92.0334 42.032 91.6961 42.032H78.2761C78.1441 42.032 78.0781 42.0906 78.0781 42.208V42.934C78.0781 42.978 78.1001 43.022 78.1441 43.066C78.1881 43.0953 78.2321 43.1026 78.2761 43.088C78.2908 43.088 78.3127 43.088 78.3421 43.088C78.3714 43.0733 78.3934 43.066 78.4081 43.066H92.3561C92.6348 43.066 92.8768 43.176 93.0821 43.396C93.3021 43.6013 93.4121 43.8433 93.4121 44.122C93.4121 44.4006 93.3021 44.65 93.0821 44.87C92.8768 45.0753 92.6348 45.178 92.3561 45.178H90.9261C90.8968 45.178 90.8748 45.2 90.8601 45.244C90.8454 45.2733 90.8454 45.3026 90.8601 45.332C91.4468 46.0066 92.0481 46.7326 92.6641 47.51C92.8694 47.774 92.9354 48.0673 92.8621 48.39C92.8034 48.7126 92.6274 48.9546 92.3341 49.116L92.2461 49.16C91.9381 49.336 91.6081 49.3873 91.2561 49.314C90.9187 49.2406 90.6401 49.0646 90.4201 48.786C90.4054 48.7713 90.3834 48.7493 90.3541 48.72C90.3394 48.6906 90.3247 48.6686 90.3101 48.654C90.2074 48.5366 90.0974 48.4853 89.9801 48.5C88.6307 48.6466 87.6261 48.7493 86.9661 48.808C86.8341 48.808 86.7681 48.874 86.7681 49.006V49.974C86.7681 50.0913 86.8341 50.15 86.9661 50.15H91.4761C91.7547 50.15 91.9894 50.2526 92.1801 50.458C92.3854 50.6486 92.4881 50.8833 92.4881 51.162C92.4881 51.4553 92.3854 51.7046 92.1801 51.91C91.9894 52.1006 91.7547 52.196 91.4761 52.196H86.9661C86.8341 52.196 86.7681 52.2546 86.7681 52.372V53.252C86.7681 53.3693 86.8341 53.428 86.9661 53.428H92.5761C92.8841 53.428 93.1481 53.538 93.3681 53.758C93.5881 53.978 93.6981 54.242 93.6981 54.55C93.6981 54.858 93.5881 55.122 93.3681 55.342C93.1481 55.5767 92.8841 55.694 92.5761 55.694H77.7481C77.4401 55.694 77.1761 55.5767 76.9561 55.342C76.7361 55.122 76.6261 54.858 76.6261 54.55C76.6261 54.242 76.7361 53.978 76.9561 53.758C77.1761 53.538 77.4401 53.428 77.7481 53.428H83.6441C83.7761 53.428 83.8421 53.3693 83.8421 53.252V52.372C83.8421 52.2546 83.7761 52.196 83.6441 52.196H79.3541C79.0754 52.196 78.8334 52.1006 78.6281 51.91C78.4374 51.7046 78.3421 51.4553 78.3421 51.162C78.3421 50.8833 78.4374 50.6486 78.6281 50.458C78.8187 50.2526 79.0607 50.15 79.3541 50.15H83.6441C83.7761 50.15 83.8421 50.0913 83.8421 49.974V49.248C83.8421 49.1306 83.7761 49.072 83.6441 49.072C81.8254 49.1893 80.4761 49.2626 79.5961 49.292C79.3028 49.3066 79.0461 49.2186 78.8261 49.028C78.6207 48.8226 78.5034 48.5733 78.4741 48.28C78.4594 47.9867 78.5548 47.7373 78.7601 47.532C78.9654 47.312 79.2074 47.1946 79.4861 47.18C79.5154 47.18 79.5668 47.18 79.6401 47.18C79.7134 47.1653 79.7647 47.158 79.7941 47.158C79.9114 47.158 80.0068 47.0993 80.0801 46.982C80.4174 46.4393 80.7254 45.8893 81.0041 45.332C81.0187 45.3026 81.0114 45.2733 80.9821 45.244C80.9674 45.2 80.9381 45.178 80.8941 45.178H78.2761C78.1441 45.1486 78.0781 45.1926 78.0781 45.31C78.0781 49.1526 77.4254 52.3353 76.1201 54.858C75.9734 55.122 75.7461 55.2613 75.4381 55.276C75.1447 55.3053 74.9027 55.2026 74.7121 54.968ZM83.2041 46.85C83.1454 46.938 83.1821 46.982 83.3141 46.982C85.0154 46.8646 86.7241 46.7326 88.4401 46.586C88.4694 46.586 88.4914 46.5786 88.5061 46.564C88.5207 46.5346 88.5207 46.5126 88.5061 46.498C88.5061 46.4686 88.4988 46.4393 88.4841 46.41C88.3814 46.278 88.2201 46.0946 88.0001 45.86C87.7948 45.6253 87.6408 45.442 87.5381 45.31C87.4794 45.222 87.3767 45.178 87.2301 45.178H84.2821C84.1354 45.178 84.0401 45.2366 83.9961 45.354C83.6441 46.0286 83.3801 46.5273 83.2041 46.85ZM78.0781 38.996V39.832C78.0781 39.964 78.1441 40.03 78.2761 40.03H89.8481C89.9801 40.03 90.0461 39.964 90.0461 39.832V38.996C90.0461 38.864 89.9801 38.798 89.8481 38.798H78.2761C78.1441 38.798 78.0781 38.864 78.0781 38.996Z"/>
<path d="M100.166 41.746C99.8288 41.746 99.5354 41.6286 99.2861 41.394C99.0514 41.1446 98.9341 40.8513 98.9341 40.514C98.9341 40.162 99.0514 39.8686 99.2861 39.634C99.5354 39.3846 99.8361 39.26 100.188 39.26C101.992 39.26 104.713 39.216 108.35 39.128C108.497 39.128 108.555 39.0693 108.526 38.952C108.482 38.556 108.438 38.138 108.394 37.698C108.365 37.3606 108.46 37.0673 108.68 36.818C108.915 36.5686 109.208 36.4293 109.56 36.4H109.846C110.183 36.3706 110.484 36.4733 110.748 36.708C111.027 36.9426 111.173 37.2286 111.188 37.566C111.203 37.698 111.217 37.9106 111.232 38.204C111.261 38.4973 111.283 38.7173 111.298 38.864C111.327 38.9813 111.401 39.04 111.518 39.04C113.234 38.9813 114.539 38.93 115.434 38.886C115.771 38.8713 116.065 38.9813 116.314 39.216C116.563 39.4506 116.695 39.7366 116.71 40.074C116.725 40.4113 116.607 40.712 116.358 40.976C116.123 41.2253 115.837 41.3573 115.5 41.372L111.936 41.504C111.819 41.504 111.775 41.57 111.804 41.702C112.171 43.154 112.787 44.628 113.652 46.124C113.813 46.4026 113.85 46.7106 113.762 47.048C113.674 47.3853 113.483 47.6273 113.19 47.774L112.772 47.972C112.097 48.324 111.371 48.3093 110.594 47.928C109.274 47.2826 107.925 46.96 106.546 46.96C105.431 46.96 104.566 47.1873 103.95 47.642C103.334 48.082 103.026 48.6833 103.026 49.446C103.026 50.458 103.481 51.2427 104.39 51.8C105.299 52.3427 106.656 52.614 108.46 52.614C109.575 52.614 110.946 52.4893 112.574 52.24C112.911 52.1813 113.219 52.2547 113.498 52.46C113.791 52.6507 113.967 52.9147 114.026 53.252V53.296C114.099 53.6333 114.033 53.9413 113.828 54.22C113.637 54.4986 113.373 54.6673 113.036 54.726C111.335 54.9753 109.809 55.1 108.46 55.1C105.644 55.1 103.547 54.572 102.168 53.516C100.789 52.46 100.1 51.0593 100.1 49.314C100.1 47.8473 100.657 46.674 101.772 45.794C102.887 44.914 104.434 44.474 106.414 44.474C107.675 44.474 108.922 44.716 110.154 45.2H110.198C110.213 45.1853 110.22 45.1706 110.22 45.156C109.721 44.144 109.325 43.022 109.032 41.79C109.003 41.6726 108.915 41.614 108.768 41.614C105.893 41.702 103.026 41.746 100.166 41.746Z"/>
<path d="M123.904 54.77C123.581 54.6526 123.347 54.4326 123.2 54.11C123.068 53.802 123.061 53.4866 123.178 53.164C125.466 47.2973 127.505 42.1346 129.294 37.676C129.426 37.3533 129.653 37.1186 129.976 36.972C130.299 36.8106 130.629 36.7813 130.966 36.884L131.208 36.95C131.531 37.0526 131.758 37.258 131.89 37.566C132.037 37.8593 132.051 38.16 131.934 38.468C131.201 40.2867 130.335 42.472 129.338 45.024V45.068H129.382C130.159 44.5253 130.893 44.254 131.582 44.254C132.535 44.254 133.291 44.6206 133.848 45.354C134.42 46.0726 134.823 47.29 135.058 49.006C135.234 50.282 135.432 51.1473 135.652 51.602C135.872 52.042 136.158 52.262 136.51 52.262C137.375 52.262 138.204 50.9566 138.996 48.346C139.099 48.0086 139.297 47.7593 139.59 47.598C139.883 47.4366 140.191 47.4 140.514 47.488L140.646 47.532C140.983 47.62 141.24 47.818 141.416 48.126C141.592 48.4193 141.629 48.7273 141.526 49.05C140.866 51.2353 140.133 52.768 139.326 53.648C138.519 54.5133 137.551 54.946 136.422 54.946C135.307 54.946 134.435 54.572 133.804 53.824C133.173 53.076 132.711 51.7706 132.418 49.908C132.227 48.7786 132.015 48.0013 131.78 47.576C131.545 47.136 131.259 46.916 130.922 46.916C130.218 46.916 129.47 47.444 128.678 48.5C127.886 49.556 126.918 51.4333 125.774 54.132C125.642 54.4546 125.415 54.682 125.092 54.814C124.769 54.9607 124.447 54.9753 124.124 54.858L123.904 54.77Z"/>
</mask>
<path d="M2.99208 12.222L2.94808 12.09C2.87475 11.7526 2.92608 11.4373 3.10208 11.144C3.29275 10.8506 3.55675 10.6673 3.89408 10.594C7.42875 9.80198 10.3694 9.40598 12.7161 9.40598C15.0041 9.40598 16.6981 9.84598 17.7981 10.726C18.9128 11.5913 19.4701 12.7426 19.4701 14.18C19.4701 16.2773 18.5314 18.008 16.6541 19.372C14.7914 20.7213 12.0341 21.594 8.38208 21.99C8.03008 22.034 7.70742 21.946 7.41408 21.726C7.13542 21.5206 6.95942 21.242 6.88608 20.89L6.86408 20.714C6.80542 20.3913 6.86408 20.098 7.04008 19.834C7.23075 19.5553 7.49475 19.394 7.83208 19.35C10.7948 18.954 12.9874 18.3233 14.4101 17.458C15.8328 16.578 16.5441 15.5366 16.5441 14.334C16.5441 12.8086 15.2241 12.046 12.5841 12.046C10.7214 12.046 8.03008 12.42 4.51008 13.168C4.17275 13.2413 3.85008 13.19 3.54208 13.014C3.24875 12.8233 3.06542 12.5593 2.99208 12.222ZM7.30408 3.99398C9.81208 4.30198 12.4008 4.49265 15.0701 4.56598C15.4074 4.58065 15.7008 4.71265 15.9501 4.96198C16.1994 5.19665 16.3241 5.48265 16.3241 5.81998V5.97398C16.3241 6.31131 16.1994 6.60465 15.9501 6.85398C15.7154 7.10331 15.4294 7.22065 15.0921 7.20598C12.4961 7.13265 9.79008 6.91998 6.97408 6.56798C6.63675 6.52398 6.35808 6.36265 6.13808 6.08398C5.93275 5.80531 5.85208 5.49732 5.89608 5.15998L5.91808 5.07198C5.96208 4.73465 6.11608 4.46331 6.38008 4.25798C6.65875 4.03798 6.96675 3.94998 7.30408 3.99398Z" fill="white"/>
<path d="M35.7941 19.724C35.9994 19.2253 36.1021 18.822 36.1021 18.514C36.1021 18.0593 35.9261 17.7146 35.5741 17.48C35.2221 17.2306 34.5914 17.106 33.6821 17.106C32.9488 17.106 32.3841 17.2306 31.9881 17.48C31.6068 17.7146 31.4161 18.008 31.4161 18.36C31.4161 19.3866 32.6628 19.9 35.1561 19.9H35.5521C35.6548 19.9 35.7354 19.8413 35.7941 19.724ZM28.4901 14.708C28.1968 14.84 27.9034 14.8546 27.6101 14.752C27.3314 14.6493 27.1188 14.4586 26.9721 14.18C26.8254 13.9013 26.7961 13.608 26.8841 13.3C26.9721 12.9773 27.1554 12.7353 27.4341 12.574L36.7181 6.96398L36.7401 6.94198L36.7181 6.91998H29.1721C28.8494 6.91998 28.5634 6.80265 28.3141 6.56798C28.0794 6.33331 27.9621 6.04731 27.9621 5.70998C27.9621 5.37265 28.0794 5.08665 28.3141 4.85198C28.5634 4.61731 28.8494 4.49998 29.1721 4.49998H40.7221C41.0594 4.49998 41.3528 4.62465 41.6021 4.87398C41.8661 5.10865 41.9981 5.39465 41.9981 5.73198C42.0274 6.53865 41.6681 7.15465 40.9201 7.57998L34.7821 10.99V11.012H34.8261C35.7941 10.8213 36.6814 10.726 37.4881 10.726C39.5854 10.726 41.1694 11.1586 42.2401 12.024C43.3254 12.8893 43.8681 14.1213 43.8681 15.72C43.8681 17.8026 43.1128 19.416 41.6021 20.56C40.0914 21.6893 37.9428 22.254 35.1561 22.254C32.9708 22.254 31.3354 21.9166 30.2501 21.242C29.1648 20.582 28.6221 19.6213 28.6221 18.36C28.6221 17.392 29.0841 16.578 30.0081 15.918C30.9321 15.2433 32.2081 14.906 33.8361 14.906C35.5081 14.906 36.7181 15.1846 37.4661 15.742C38.2141 16.2993 38.5881 17.1206 38.5881 18.206C38.5881 18.47 38.5514 18.8 38.4781 19.196C38.4634 19.24 38.4708 19.2766 38.5001 19.306C38.5441 19.3206 38.5808 19.3206 38.6101 19.306C40.0621 18.6753 40.7881 17.568 40.7881 15.984C40.7881 14.972 40.4288 14.2093 39.7101 13.696C39.0061 13.1826 37.8768 12.926 36.3221 12.926C33.6968 12.926 31.0861 13.52 28.4901 14.708Z" fill="white"/>
<path d="M56.9801 19.834C57.9481 19.834 58.6154 19.6726 58.9821 19.35C59.3488 19.0126 59.5394 18.3893 59.5541 17.48C59.5541 17.3626 59.4954 17.282 59.3781 17.238C58.5861 16.93 57.8821 16.776 57.2661 16.776C56.4008 16.776 55.7774 16.8933 55.3961 17.128C55.0294 17.3626 54.8461 17.722 54.8461 18.206C54.8461 18.7193 55.0294 19.1226 55.3961 19.416C55.7774 19.6946 56.3054 19.834 56.9801 19.834ZM52.0741 8.01998C51.7368 8.01998 51.4434 7.89531 51.1941 7.64598C50.9448 7.39665 50.8201 7.10332 50.8201 6.76598C50.8201 6.42865 50.9448 6.14265 51.1941 5.90798C51.4434 5.65865 51.7368 5.53398 52.0741 5.53398H59.3561C59.4881 5.53398 59.5541 5.46798 59.5541 5.33598V4.65398C59.5541 4.31665 59.6714 4.02331 59.9061 3.77398C60.1554 3.52465 60.4488 3.39998 60.7861 3.39998H61.0941C61.4314 3.39998 61.7174 3.52465 61.9521 3.77398C62.2014 4.02331 62.3261 4.31665 62.3261 4.65398V5.33598C62.3261 5.46798 62.3921 5.53398 62.5241 5.53398H66.7261C67.0634 5.53398 67.3568 5.65865 67.6061 5.90798C67.8554 6.14265 67.9801 6.42865 67.9801 6.76598C67.9801 7.10332 67.8554 7.39665 67.6061 7.64598C67.3568 7.89531 67.0634 8.01998 66.7261 8.01998H62.5241C62.3921 8.01998 62.3261 8.07865 62.3261 8.19598V9.73598C62.3261 9.86798 62.3921 9.93398 62.5241 9.93398H65.9561C66.2934 9.93398 66.5794 10.0513 66.8141 10.286C67.0488 10.5206 67.1661 10.8066 67.1661 11.144C67.1661 11.4813 67.0488 11.7746 66.8141 12.024C66.5794 12.2586 66.2934 12.376 65.9561 12.376H62.5241C62.3921 12.376 62.3261 12.442 62.3261 12.574V15.742C62.3261 15.8593 62.3774 15.9546 62.4801 16.028C63.8001 16.7906 65.1714 17.788 66.5941 19.02C66.8581 19.24 66.9974 19.526 67.0121 19.878C67.0268 20.23 66.9168 20.5306 66.6821 20.78L66.6161 20.846C66.3814 21.0953 66.0881 21.2273 65.7361 21.242C65.3988 21.2713 65.1054 21.1686 64.8561 20.934C63.9321 20.1273 63.1034 19.46 62.3701 18.932C62.2674 18.8586 62.2014 18.8806 62.1721 18.998C61.9374 20.1713 61.4021 21.0146 60.5661 21.528C59.7448 22.056 58.5494 22.32 56.9801 22.32C55.4254 22.32 54.2008 21.9533 53.3061 21.22C52.4261 20.5013 51.9861 19.4966 51.9861 18.206C51.9861 17.0473 52.3894 16.116 53.1961 15.412C54.0174 14.6933 55.2788 14.334 56.9801 14.334C57.8161 14.334 58.6154 14.444 59.3781 14.664C59.4954 14.6933 59.5541 14.6493 59.5541 14.532V12.574C59.5541 12.442 59.4881 12.376 59.3561 12.376H52.8441C52.5068 12.376 52.2208 12.2586 51.9861 12.024C51.7514 11.7893 51.6341 11.5033 51.6341 11.166C51.6341 10.8286 51.7514 10.5426 51.9861 10.308C52.2208 10.0586 52.5068 9.93398 52.8441 9.93398H59.3561C59.4881 9.93398 59.5541 9.86798 59.5541 9.73598V8.21798C59.5541 8.08598 59.4881 8.01998 59.3561 8.01998H52.0741Z" fill="white"/>
<path d="M74.8661 7.51398C74.5287 7.51398 74.2354 7.38931 73.9861 7.13998C73.7514 6.89065 73.6341 6.59732 73.6341 6.25998C73.6341 5.92265 73.7514 5.62932 73.9861 5.37998C74.2354 5.13065 74.5287 5.00598 74.8661 5.00598H81.7961C81.9281 5.00598 81.9941 4.94731 81.9941 4.82998V4.12598C81.9941 3.78865 82.1114 3.50265 82.3461 3.26798C82.5954 3.01865 82.8887 2.89398 83.2261 2.89398H83.7541C84.0914 2.89398 84.3774 3.01865 84.6121 3.26798C84.8614 3.50265 84.9861 3.78865 84.9861 4.12598V4.82998C84.9861 4.94731 85.0521 5.00598 85.1841 5.00598H92.3341C92.6714 5.00598 92.9574 5.13065 93.1921 5.37998C93.4414 5.62932 93.5661 5.92265 93.5661 6.25998C93.5661 6.59732 93.4414 6.89065 93.1921 7.13998C92.9574 7.38931 92.6714 7.51398 92.3341 7.51398H85.1841C85.0521 7.51398 84.9861 7.57265 84.9861 7.68998V9.60398C84.9861 9.72131 85.0521 9.77998 85.1841 9.77998H91.2561C91.5934 9.77998 91.8868 9.90465 92.1361 10.154C92.3854 10.4033 92.5101 10.6966 92.5101 11.034V17.7C92.5101 18.3013 92.4954 18.778 92.4661 19.13C92.4514 19.4673 92.4001 19.79 92.3121 20.098C92.2241 20.3913 92.1214 20.604 92.0041 20.736C91.8867 20.868 91.6961 20.978 91.4321 21.066C91.1681 21.1686 90.8821 21.2273 90.5741 21.242C90.2807 21.2713 89.8774 21.286 89.3641 21.286C89.2761 21.286 88.7774 21.2713 87.8681 21.242C87.5161 21.2273 87.2154 21.0953 86.9661 20.846C86.7314 20.5966 86.5994 20.296 86.5701 19.944C86.5554 19.6213 86.6654 19.3353 86.9001 19.086C87.1348 18.8366 87.4207 18.7266 87.7581 18.756L88.7701 18.8C89.1954 18.8 89.4447 18.756 89.5181 18.668C89.6061 18.5653 89.6501 18.2646 89.6501 17.766V12.464C89.6501 12.332 89.5914 12.266 89.4741 12.266H85.1841C85.0521 12.266 84.9861 12.332 84.9861 12.464V22.034C84.9861 22.3713 84.8614 22.6573 84.6121 22.892C84.3774 23.1413 84.0914 23.266 83.7541 23.266H83.2261C82.8887 23.266 82.5954 23.1413 82.3461 22.892C82.1114 22.6573 81.9941 22.3713 81.9941 22.034V12.464C81.9941 12.332 81.9281 12.266 81.7961 12.266H77.7481C77.6161 12.266 77.5501 12.332 77.5501 12.464V20.054C77.5501 20.3913 77.4254 20.6846 77.1761 20.934C76.9267 21.1686 76.6334 21.286 76.2961 21.286H75.9441C75.6068 21.286 75.3134 21.1686 75.0641 20.934C74.8147 20.6846 74.6901 20.3913 74.6901 20.054V11.034C74.6901 10.6966 74.8147 10.4033 75.0641 10.154C75.3134 9.90465 75.6068 9.77998 75.9441 9.77998H81.7961C81.9281 9.77998 81.9941 9.72131 81.9941 9.60398V7.68998C81.9941 7.57265 81.9281 7.51398 81.7961 7.51398H74.8661Z" fill="white"/>
<path d="M106.502 7.51398C104.786 7.88065 103.437 8.66532 102.454 9.86798C101.471 11.056 100.98 12.5153 100.98 14.246C100.98 15.3606 101.207 16.3506 101.662 17.216C102.117 18.0813 102.549 18.514 102.96 18.514C103.165 18.514 103.378 18.4186 103.598 18.228C103.818 18.0226 104.06 17.6633 104.324 17.15C104.603 16.622 104.867 15.9693 105.116 15.192C105.38 14.4 105.644 13.3586 105.908 12.068C106.187 10.7626 106.436 9.29598 106.656 7.66798C106.671 7.62398 106.656 7.58732 106.612 7.55798C106.583 7.51398 106.546 7.49931 106.502 7.51398ZM102.96 21.286C101.772 21.286 100.679 20.604 99.6821 19.24C98.6848 17.876 98.1861 16.2113 98.1861 14.246C98.1861 11.4006 99.1541 9.09065 101.09 7.31598C103.026 5.54131 105.556 4.65398 108.68 4.65398C111.203 4.65398 113.285 5.44598 114.928 7.02998C116.585 8.61398 117.414 10.6306 117.414 13.08C117.414 15.3826 116.879 17.282 115.808 18.778C114.752 20.2593 113.3 21.2053 111.452 21.616C111.1 21.6893 110.777 21.6233 110.484 21.418C110.205 21.2126 110.029 20.934 109.956 20.582L109.912 20.384C109.839 20.0613 109.897 19.7606 110.088 19.482C110.279 19.2033 110.535 19.0126 110.858 18.91C113.366 18.1326 114.62 16.1893 114.62 13.08C114.62 11.584 114.173 10.3226 113.278 9.29598C112.398 8.25465 111.239 7.61665 109.802 7.38198C109.67 7.35265 109.589 7.40398 109.56 7.53598C109.267 9.75065 108.937 11.6793 108.57 13.322C108.203 14.95 107.815 16.27 107.404 17.282C107.008 18.2793 106.561 19.086 106.062 19.702C105.563 20.3033 105.072 20.7213 104.588 20.956C104.104 21.176 103.561 21.286 102.96 21.286Z" fill="white"/>
<path d="M3.74008 46.96C3.40275 46.96 3.10942 46.8353 2.86008 46.586C2.61075 46.3367 2.48608 46.0433 2.48608 45.706V40.8C2.48608 40.4626 2.61075 40.1693 2.86008 39.92C3.10942 39.6707 3.40275 39.546 3.74008 39.546H9.19608C9.32808 39.546 9.39408 39.4873 9.39408 39.37V37.5C9.39408 37.1626 9.51142 36.8693 9.74608 36.62C9.99542 36.3706 10.2888 36.246 10.6261 36.246H11.0661C11.4034 36.246 11.6968 36.3706 11.9461 36.62C12.1954 36.8693 12.3201 37.1626 12.3201 37.5V39.37C12.3201 39.4873 12.3861 39.546 12.5181 39.546H18.2601C18.5974 39.546 18.8908 39.6707 19.1401 39.92C19.3894 40.1693 19.5141 40.4626 19.5141 40.8V43.66C19.5141 46.96 18.5388 49.5633 16.5881 51.47C14.6521 53.362 11.7701 54.4913 7.94208 54.858C7.59008 54.8873 7.27475 54.792 6.99608 54.572C6.73208 54.352 6.57075 54.066 6.51208 53.714L6.46808 53.538C6.42408 53.2153 6.50475 52.922 6.71008 52.658C6.93008 52.394 7.20875 52.2473 7.54608 52.218C10.6408 51.8953 12.9141 51.0373 14.3661 49.644C15.8328 48.236 16.5661 46.2413 16.5661 43.66V42.318C16.5661 42.186 16.5074 42.12 16.3901 42.12H5.54408C5.41208 42.12 5.34608 42.186 5.34608 42.318V45.706C5.34608 46.0433 5.22142 46.3367 4.97208 46.586C4.73742 46.8353 4.45142 46.96 4.11408 46.96H3.74008Z" fill="white"/>
<path d="M29.4361 54.132C29.1134 54.132 28.8348 54.0147 28.6001 53.78C28.3654 53.5453 28.2481 53.2666 28.2481 52.944C28.2481 52.6066 28.3654 52.3206 28.6001 52.086C28.8348 51.8513 29.1134 51.734 29.4361 51.734H33.6161C33.7481 51.734 33.8141 51.6753 33.8141 51.558V44.122C33.8141 44.0046 33.7481 43.946 33.6161 43.946H29.9641C29.6414 43.946 29.3628 43.8286 29.1281 43.594C28.8934 43.3593 28.7761 43.0733 28.7761 42.736C28.7761 42.4133 28.8934 42.1346 29.1281 41.9C29.3628 41.6653 29.6414 41.548 29.9641 41.548H40.4361C40.7588 41.548 41.0374 41.6653 41.2721 41.9C41.5068 42.1346 41.6241 42.4133 41.6241 42.736C41.6241 43.0733 41.5068 43.3593 41.2721 43.594C41.0374 43.8286 40.7588 43.946 40.4361 43.946H36.7841C36.6521 43.946 36.5861 44.0046 36.5861 44.122V51.558C36.5861 51.6753 36.6521 51.734 36.7841 51.734H40.9641C41.2868 51.734 41.5654 51.8513 41.8001 52.086C42.0348 52.3206 42.1521 52.6066 42.1521 52.944C42.1521 53.2666 42.0348 53.5453 41.8001 53.78C41.5654 54.0147 41.2868 54.132 40.9641 54.132H29.4361Z" fill="white"/>
<path d="M51.5461 41.24C51.2088 41.24 50.9154 41.1153 50.6661 40.866C50.4314 40.6166 50.3141 40.3233 50.3141 39.986V39.7C50.3141 39.3626 50.4314 39.0693 50.6661 38.82C50.9154 38.5706 51.2088 38.446 51.5461 38.446H63.8221C63.8661 38.446 63.8954 38.4313 63.9101 38.402C63.9394 38.358 63.9394 38.3213 63.9101 38.292C63.8661 38.2333 63.8148 38.138 63.7561 38.006C63.6974 37.874 63.6461 37.7713 63.6021 37.698C63.4408 37.4193 63.4114 37.126 63.5141 36.818C63.6168 36.51 63.8074 36.2826 64.0861 36.136C64.3648 35.9893 64.6581 35.9673 64.9661 36.07C65.2741 36.158 65.5014 36.3413 65.6481 36.62C65.8388 36.972 66.1101 37.5 66.4621 38.204C66.8581 38.996 67.0341 39.7953 66.9901 40.602C66.7554 44.9433 65.5601 48.2653 63.4041 50.568C61.2481 52.8706 58.0288 54.308 53.7461 54.88C53.3941 54.924 53.0788 54.836 52.8001 54.616C52.5214 54.4106 52.3454 54.1393 52.2721 53.802L52.2281 53.538C52.1694 53.2153 52.2354 52.922 52.4261 52.658C52.6168 52.3793 52.8808 52.218 53.2181 52.174C56.6501 51.7046 59.2021 50.6267 60.8741 48.94C62.5608 47.2533 63.5508 44.7453 63.8441 41.416C63.8441 41.2986 63.7854 41.24 63.6681 41.24H51.5461ZM69.0361 36.334C69.1094 36.4806 69.2121 36.6933 69.3441 36.972C69.4908 37.2506 69.5934 37.4486 69.6521 37.566C69.7988 37.8593 69.8208 38.1526 69.7181 38.446C69.6154 38.7393 69.4174 38.9593 69.1241 39.106C68.8308 39.2526 68.5301 39.2746 68.2221 39.172C67.9288 39.0693 67.7014 38.8713 67.5401 38.578C67.4081 38.314 67.1954 37.918 66.9021 37.39C66.7554 37.0966 66.7261 36.8033 66.8141 36.51C66.9168 36.202 67.1148 35.9746 67.4081 35.828C67.7014 35.6813 68.0094 35.6593 68.3321 35.762C68.6548 35.8646 68.8894 36.0553 69.0361 36.334Z" fill="white"/>
<path d="M74.7121 54.968L74.2941 54.462C73.7954 53.846 73.7001 53.1493 74.0081 52.372C74.8734 50.1866 75.3061 47.158 75.3061 43.286V37.874C75.3061 37.5366 75.4234 37.2433 75.6581 36.994C75.9074 36.7446 76.2008 36.62 76.5381 36.62H91.6961C92.0334 36.62 92.3194 36.7446 92.5541 36.994C92.8034 37.2433 92.9281 37.5366 92.9281 37.874V40.778C92.9281 41.1153 92.8034 41.4086 92.5541 41.658C92.3194 41.9073 92.0334 42.032 91.6961 42.032H78.2761C78.1441 42.032 78.0781 42.0906 78.0781 42.208V42.934C78.0781 42.978 78.1001 43.022 78.1441 43.066C78.1881 43.0953 78.2321 43.1026 78.2761 43.088C78.2908 43.088 78.3127 43.088 78.3421 43.088C78.3714 43.0733 78.3934 43.066 78.4081 43.066H92.3561C92.6348 43.066 92.8768 43.176 93.0821 43.396C93.3021 43.6013 93.4121 43.8433 93.4121 44.122C93.4121 44.4006 93.3021 44.65 93.0821 44.87C92.8768 45.0753 92.6348 45.178 92.3561 45.178H90.9261C90.8968 45.178 90.8748 45.2 90.8601 45.244C90.8454 45.2733 90.8454 45.3026 90.8601 45.332C91.4468 46.0066 92.0481 46.7326 92.6641 47.51C92.8694 47.774 92.9354 48.0673 92.8621 48.39C92.8034 48.7126 92.6274 48.9546 92.3341 49.116L92.2461 49.16C91.9381 49.336 91.6081 49.3873 91.2561 49.314C90.9187 49.2406 90.6401 49.0646 90.4201 48.786C90.4054 48.7713 90.3834 48.7493 90.3541 48.72C90.3394 48.6906 90.3247 48.6686 90.3101 48.654C90.2074 48.5366 90.0974 48.4853 89.9801 48.5C88.6307 48.6466 87.6261 48.7493 86.9661 48.808C86.8341 48.808 86.7681 48.874 86.7681 49.006V49.974C86.7681 50.0913 86.8341 50.15 86.9661 50.15H91.4761C91.7547 50.15 91.9894 50.2526 92.1801 50.458C92.3854 50.6486 92.4881 50.8833 92.4881 51.162C92.4881 51.4553 92.3854 51.7046 92.1801 51.91C91.9894 52.1006 91.7547 52.196 91.4761 52.196H86.9661C86.8341 52.196 86.7681 52.2546 86.7681 52.372V53.252C86.7681 53.3693 86.8341 53.428 86.9661 53.428H92.5761C92.8841 53.428 93.1481 53.538 93.3681 53.758C93.5881 53.978 93.6981 54.242 93.6981 54.55C93.6981 54.858 93.5881 55.122 93.3681 55.342C93.1481 55.5767 92.8841 55.694 92.5761 55.694H77.7481C77.4401 55.694 77.1761 55.5767 76.9561 55.342C76.7361 55.122 76.6261 54.858 76.6261 54.55C76.6261 54.242 76.7361 53.978 76.9561 53.758C77.1761 53.538 77.4401 53.428 77.7481 53.428H83.6441C83.7761 53.428 83.8421 53.3693 83.8421 53.252V52.372C83.8421 52.2546 83.7761 52.196 83.6441 52.196H79.3541C79.0754 52.196 78.8334 52.1006 78.6281 51.91C78.4374 51.7046 78.3421 51.4553 78.3421 51.162C78.3421 50.8833 78.4374 50.6486 78.6281 50.458C78.8187 50.2526 79.0607 50.15 79.3541 50.15H83.6441C83.7761 50.15 83.8421 50.0913 83.8421 49.974V49.248C83.8421 49.1306 83.7761 49.072 83.6441 49.072C81.8254 49.1893 80.4761 49.2626 79.5961 49.292C79.3028 49.3066 79.0461 49.2186 78.8261 49.028C78.6207 48.8226 78.5034 48.5733 78.4741 48.28C78.4594 47.9867 78.5548 47.7373 78.7601 47.532C78.9654 47.312 79.2074 47.1946 79.4861 47.18C79.5154 47.18 79.5668 47.18 79.6401 47.18C79.7134 47.1653 79.7647 47.158 79.7941 47.158C79.9114 47.158 80.0068 47.0993 80.0801 46.982C80.4174 46.4393 80.7254 45.8893 81.0041 45.332C81.0187 45.3026 81.0114 45.2733 80.9821 45.244C80.9674 45.2 80.9381 45.178 80.8941 45.178H78.2761C78.1441 45.1486 78.0781 45.1926 78.0781 45.31C78.0781 49.1526 77.4254 52.3353 76.1201 54.858C75.9734 55.122 75.7461 55.2613 75.4381 55.276C75.1447 55.3053 74.9027 55.2026 74.7121 54.968ZM83.2041 46.85C83.1454 46.938 83.1821 46.982 83.3141 46.982C85.0154 46.8646 86.7241 46.7326 88.4401 46.586C88.4694 46.586 88.4914 46.5786 88.5061 46.564C88.5207 46.5346 88.5207 46.5126 88.5061 46.498C88.5061 46.4686 88.4988 46.4393 88.4841 46.41C88.3814 46.278 88.2201 46.0946 88.0001 45.86C87.7948 45.6253 87.6408 45.442 87.5381 45.31C87.4794 45.222 87.3767 45.178 87.2301 45.178H84.2821C84.1354 45.178 84.0401 45.2366 83.9961 45.354C83.6441 46.0286 83.3801 46.5273 83.2041 46.85ZM78.0781 38.996V39.832C78.0781 39.964 78.1441 40.03 78.2761 40.03H89.8481C89.9801 40.03 90.0461 39.964 90.0461 39.832V38.996C90.0461 38.864 89.9801 38.798 89.8481 38.798H78.2761C78.1441 38.798 78.0781 38.864 78.0781 38.996Z" fill="white"/>
<path d="M100.166 41.746C99.8288 41.746 99.5354 41.6286 99.2861 41.394C99.0514 41.1446 98.9341 40.8513 98.9341 40.514C98.9341 40.162 99.0514 39.8686 99.2861 39.634C99.5354 39.3846 99.8361 39.26 100.188 39.26C101.992 39.26 104.713 39.216 108.35 39.128C108.497 39.128 108.555 39.0693 108.526 38.952C108.482 38.556 108.438 38.138 108.394 37.698C108.365 37.3606 108.46 37.0673 108.68 36.818C108.915 36.5686 109.208 36.4293 109.56 36.4H109.846C110.183 36.3706 110.484 36.4733 110.748 36.708C111.027 36.9426 111.173 37.2286 111.188 37.566C111.203 37.698 111.217 37.9106 111.232 38.204C111.261 38.4973 111.283 38.7173 111.298 38.864C111.327 38.9813 111.401 39.04 111.518 39.04C113.234 38.9813 114.539 38.93 115.434 38.886C115.771 38.8713 116.065 38.9813 116.314 39.216C116.563 39.4506 116.695 39.7366 116.71 40.074C116.725 40.4113 116.607 40.712 116.358 40.976C116.123 41.2253 115.837 41.3573 115.5 41.372L111.936 41.504C111.819 41.504 111.775 41.57 111.804 41.702C112.171 43.154 112.787 44.628 113.652 46.124C113.813 46.4026 113.85 46.7106 113.762 47.048C113.674 47.3853 113.483 47.6273 113.19 47.774L112.772 47.972C112.097 48.324 111.371 48.3093 110.594 47.928C109.274 47.2826 107.925 46.96 106.546 46.96C105.431 46.96 104.566 47.1873 103.95 47.642C103.334 48.082 103.026 48.6833 103.026 49.446C103.026 50.458 103.481 51.2427 104.39 51.8C105.299 52.3427 106.656 52.614 108.46 52.614C109.575 52.614 110.946 52.4893 112.574 52.24C112.911 52.1813 113.219 52.2547 113.498 52.46C113.791 52.6507 113.967 52.9147 114.026 53.252V53.296C114.099 53.6333 114.033 53.9413 113.828 54.22C113.637 54.4986 113.373 54.6673 113.036 54.726C111.335 54.9753 109.809 55.1 108.46 55.1C105.644 55.1 103.547 54.572 102.168 53.516C100.789 52.46 100.1 51.0593 100.1 49.314C100.1 47.8473 100.657 46.674 101.772 45.794C102.887 44.914 104.434 44.474 106.414 44.474C107.675 44.474 108.922 44.716 110.154 45.2H110.198C110.213 45.1853 110.22 45.1706 110.22 45.156C109.721 44.144 109.325 43.022 109.032 41.79C109.003 41.6726 108.915 41.614 108.768 41.614C105.893 41.702 103.026 41.746 100.166 41.746Z" fill="white"/>
<path d="M123.904 54.77C123.581 54.6526 123.347 54.4326 123.2 54.11C123.068 53.802 123.061 53.4866 123.178 53.164C125.466 47.2973 127.505 42.1346 129.294 37.676C129.426 37.3533 129.653 37.1186 129.976 36.972C130.299 36.8106 130.629 36.7813 130.966 36.884L131.208 36.95C131.531 37.0526 131.758 37.258 131.89 37.566C132.037 37.8593 132.051 38.16 131.934 38.468C131.201 40.2867 130.335 42.472 129.338 45.024V45.068H129.382C130.159 44.5253 130.893 44.254 131.582 44.254C132.535 44.254 133.291 44.6206 133.848 45.354C134.42 46.0726 134.823 47.29 135.058 49.006C135.234 50.282 135.432 51.1473 135.652 51.602C135.872 52.042 136.158 52.262 136.51 52.262C137.375 52.262 138.204 50.9566 138.996 48.346C139.099 48.0086 139.297 47.7593 139.59 47.598C139.883 47.4366 140.191 47.4 140.514 47.488L140.646 47.532C140.983 47.62 141.24 47.818 141.416 48.126C141.592 48.4193 141.629 48.7273 141.526 49.05C140.866 51.2353 140.133 52.768 139.326 53.648C138.519 54.5133 137.551 54.946 136.422 54.946C135.307 54.946 134.435 54.572 133.804 53.824C133.173 53.076 132.711 51.7706 132.418 49.908C132.227 48.7786 132.015 48.0013 131.78 47.576C131.545 47.136 131.259 46.916 130.922 46.916C130.218 46.916 129.47 47.444 128.678 48.5C127.886 49.556 126.918 51.4333 125.774 54.132C125.642 54.4546 125.415 54.682 125.092 54.814C124.769 54.9607 124.447 54.9753 124.124 54.858L123.904 54.77Z" fill="white"/>
<path d="M2.99208 12.222L2.94808 12.09C2.87475 11.7526 2.92608 11.4373 3.10208 11.144C3.29275 10.8506 3.55675 10.6673 3.89408 10.594C7.42875 9.80198 10.3694 9.40598 12.7161 9.40598C15.0041 9.40598 16.6981 9.84598 17.7981 10.726C18.9128 11.5913 19.4701 12.7426 19.4701 14.18C19.4701 16.2773 18.5314 18.008 16.6541 19.372C14.7914 20.7213 12.0341 21.594 8.38208 21.99C8.03008 22.034 7.70742 21.946 7.41408 21.726C7.13542 21.5206 6.95942 21.242 6.88608 20.89L6.86408 20.714C6.80542 20.3913 6.86408 20.098 7.04008 19.834C7.23075 19.5553 7.49475 19.394 7.83208 19.35C10.7948 18.954 12.9874 18.3233 14.4101 17.458C15.8328 16.578 16.5441 15.5366 16.5441 14.334C16.5441 12.8086 15.2241 12.046 12.5841 12.046C10.7214 12.046 8.03008 12.42 4.51008 13.168C4.17275 13.2413 3.85008 13.19 3.54208 13.014C3.24875 12.8233 3.06542 12.5593 2.99208 12.222ZM7.30408 3.99398C9.81208 4.30198 12.4008 4.49265 15.0701 4.56598C15.4074 4.58065 15.7008 4.71265 15.9501 4.96198C16.1994 5.19665 16.3241 5.48265 16.3241 5.81998V5.97398C16.3241 6.31131 16.1994 6.60465 15.9501 6.85398C15.7154 7.10331 15.4294 7.22065 15.0921 7.20598C12.4961 7.13265 9.79008 6.91998 6.97408 6.56798C6.63675 6.52398 6.35808 6.36265 6.13808 6.08398C5.93275 5.80531 5.85208 5.49732 5.89608 5.15998L5.91808 5.07198C5.96208 4.73465 6.11608 4.46331 6.38008 4.25798C6.65875 4.03798 6.96675 3.94998 7.30408 3.99398Z" stroke="#1C1C1C" stroke-width="4" mask="url(#path-1-outside-1_135_193)"/>
<path d="M35.7941 19.724C35.9994 19.2253 36.1021 18.822 36.1021 18.514C36.1021 18.0593 35.9261 17.7146 35.5741 17.48C35.2221 17.2306 34.5914 17.106 33.6821 17.106C32.9488 17.106 32.3841 17.2306 31.9881 17.48C31.6068 17.7146 31.4161 18.008 31.4161 18.36C31.4161 19.3866 32.6628 19.9 35.1561 19.9H35.5521C35.6548 19.9 35.7354 19.8413 35.7941 19.724ZM28.4901 14.708C28.1968 14.84 27.9034 14.8546 27.6101 14.752C27.3314 14.6493 27.1188 14.4586 26.9721 14.18C26.8254 13.9013 26.7961 13.608 26.8841 13.3C26.9721 12.9773 27.1554 12.7353 27.4341 12.574L36.7181 6.96398L36.7401 6.94198L36.7181 6.91998H29.1721C28.8494 6.91998 28.5634 6.80265 28.3141 6.56798C28.0794 6.33331 27.9621 6.04731 27.9621 5.70998C27.9621 5.37265 28.0794 5.08665 28.3141 4.85198C28.5634 4.61731 28.8494 4.49998 29.1721 4.49998H40.7221C41.0594 4.49998 41.3528 4.62465 41.6021 4.87398C41.8661 5.10865 41.9981 5.39465 41.9981 5.73198C42.0274 6.53865 41.6681 7.15465 40.9201 7.57998L34.7821 10.99V11.012H34.8261C35.7941 10.8213 36.6814 10.726 37.4881 10.726C39.5854 10.726 41.1694 11.1586 42.2401 12.024C43.3254 12.8893 43.8681 14.1213 43.8681 15.72C43.8681 17.8026 43.1128 19.416 41.6021 20.56C40.0914 21.6893 37.9428 22.254 35.1561 22.254C32.9708 22.254 31.3354 21.9166 30.2501 21.242C29.1648 20.582 28.6221 19.6213 28.6221 18.36C28.6221 17.392 29.0841 16.578 30.0081 15.918C30.9321 15.2433 32.2081 14.906 33.8361 14.906C35.5081 14.906 36.7181 15.1846 37.4661 15.742C38.2141 16.2993 38.5881 17.1206 38.5881 18.206C38.5881 18.47 38.5514 18.8 38.4781 19.196C38.4634 19.24 38.4708 19.2766 38.5001 19.306C38.5441 19.3206 38.5808 19.3206 38.6101 19.306C40.0621 18.6753 40.7881 17.568 40.7881 15.984C40.7881 14.972 40.4288 14.2093 39.7101 13.696C39.0061 13.1826 37.8768 12.926 36.3221 12.926C33.6968 12.926 31.0861 13.52 28.4901 14.708Z" stroke="#1C1C1C" stroke-width="4" mask="url(#path-1-outside-1_135_193)"/>
<path d="M56.9801 19.834C57.9481 19.834 58.6154 19.6726 58.9821 19.35C59.3488 19.0126 59.5394 18.3893 59.5541 17.48C59.5541 17.3626 59.4954 17.282 59.3781 17.238C58.5861 16.93 57.8821 16.776 57.2661 16.776C56.4008 16.776 55.7774 16.8933 55.3961 17.128C55.0294 17.3626 54.8461 17.722 54.8461 18.206C54.8461 18.7193 55.0294 19.1226 55.3961 19.416C55.7774 19.6946 56.3054 19.834 56.9801 19.834ZM52.0741 8.01998C51.7368 8.01998 51.4434 7.89531 51.1941 7.64598C50.9448 7.39665 50.8201 7.10332 50.8201 6.76598C50.8201 6.42865 50.9448 6.14265 51.1941 5.90798C51.4434 5.65865 51.7368 5.53398 52.0741 5.53398H59.3561C59.4881 5.53398 59.5541 5.46798 59.5541 5.33598V4.65398C59.5541 4.31665 59.6714 4.02331 59.9061 3.77398C60.1554 3.52465 60.4488 3.39998 60.7861 3.39998H61.0941C61.4314 3.39998 61.7174 3.52465 61.9521 3.77398C62.2014 4.02331 62.3261 4.31665 62.3261 4.65398V5.33598C62.3261 5.46798 62.3921 5.53398 62.5241 5.53398H66.7261C67.0634 5.53398 67.3568 5.65865 67.6061 5.90798C67.8554 6.14265 67.9801 6.42865 67.9801 6.76598C67.9801 7.10332 67.8554 7.39665 67.6061 7.64598C67.3568 7.89531 67.0634 8.01998 66.7261 8.01998H62.5241C62.3921 8.01998 62.3261 8.07865 62.3261 8.19598V9.73598C62.3261 9.86798 62.3921 9.93398 62.5241 9.93398H65.9561C66.2934 9.93398 66.5794 10.0513 66.8141 10.286C67.0488 10.5206 67.1661 10.8066 67.1661 11.144C67.1661 11.4813 67.0488 11.7746 66.8141 12.024C66.5794 12.2586 66.2934 12.376 65.9561 12.376H62.5241C62.3921 12.376 62.3261 12.442 62.3261 12.574V15.742C62.3261 15.8593 62.3774 15.9546 62.4801 16.028C63.8001 16.7906 65.1714 17.788 66.5941 19.02C66.8581 19.24 66.9974 19.526 67.0121 19.878C67.0268 20.23 66.9168 20.5306 66.6821 20.78L66.6161 20.846C66.3814 21.0953 66.0881 21.2273 65.7361 21.242C65.3988 21.2713 65.1054 21.1686 64.8561 20.934C63.9321 20.1273 63.1034 19.46 62.3701 18.932C62.2674 18.8586 62.2014 18.8806 62.1721 18.998C61.9374 20.1713 61.4021 21.0146 60.5661 21.528C59.7448 22.056 58.5494 22.32 56.9801 22.32C55.4254 22.32 54.2008 21.9533 53.3061 21.22C52.4261 20.5013 51.9861 19.4966 51.9861 18.206C51.9861 17.0473 52.3894 16.116 53.1961 15.412C54.0174 14.6933 55.2788 14.334 56.9801 14.334C57.8161 14.334 58.6154 14.444 59.3781 14.664C59.4954 14.6933 59.5541 14.6493 59.5541 14.532V12.574C59.5541 12.442 59.4881 12.376 59.3561 12.376H52.8441C52.5068 12.376 52.2208 12.2586 51.9861 12.024C51.7514 11.7893 51.6341 11.5033 51.6341 11.166C51.6341 10.8286 51.7514 10.5426 51.9861 10.308C52.2208 10.0586 52.5068 9.93398 52.8441 9.93398H59.3561C59.4881 9.93398 59.5541 9.86798 59.5541 9.73598V8.21798C59.5541 8.08598 59.4881 8.01998 59.3561 8.01998H52.0741Z" stroke="#1C1C1C" stroke-width="4" mask="url(#path-1-outside-1_135_193)"/>
<path d="M74.8661 7.51398C74.5287 7.51398 74.2354 7.38931 73.9861 7.13998C73.7514 6.89065 73.6341 6.59732 73.6341 6.25998C73.6341 5.92265 73.7514 5.62932 73.9861 5.37998C74.2354 5.13065 74.5287 5.00598 74.8661 5.00598H81.7961C81.9281 5.00598 81.9941 4.94731 81.9941 4.82998V4.12598C81.9941 3.78865 82.1114 3.50265 82.3461 3.26798C82.5954 3.01865 82.8887 2.89398 83.2261 2.89398H83.7541C84.0914 2.89398 84.3774 3.01865 84.6121 3.26798C84.8614 3.50265 84.9861 3.78865 84.9861 4.12598V4.82998C84.9861 4.94731 85.0521 5.00598 85.1841 5.00598H92.3341C92.6714 5.00598 92.9574 5.13065 93.1921 5.37998C93.4414 5.62932 93.5661 5.92265 93.5661 6.25998C93.5661 6.59732 93.4414 6.89065 93.1921 7.13998C92.9574 7.38931 92.6714 7.51398 92.3341 7.51398H85.1841C85.0521 7.51398 84.9861 7.57265 84.9861 7.68998V9.60398C84.9861 9.72131 85.0521 9.77998 85.1841 9.77998H91.2561C91.5934 9.77998 91.8868 9.90465 92.1361 10.154C92.3854 10.4033 92.5101 10.6966 92.5101 11.034V17.7C92.5101 18.3013 92.4954 18.778 92.4661 19.13C92.4514 19.4673 92.4001 19.79 92.3121 20.098C92.2241 20.3913 92.1214 20.604 92.0041 20.736C91.8867 20.868 91.6961 20.978 91.4321 21.066C91.1681 21.1686 90.8821 21.2273 90.5741 21.242C90.2807 21.2713 89.8774 21.286 89.3641 21.286C89.2761 21.286 88.7774 21.2713 87.8681 21.242C87.5161 21.2273 87.2154 21.0953 86.9661 20.846C86.7314 20.5966 86.5994 20.296 86.5701 19.944C86.5554 19.6213 86.6654 19.3353 86.9001 19.086C87.1348 18.8366 87.4207 18.7266 87.7581 18.756L88.7701 18.8C89.1954 18.8 89.4447 18.756 89.5181 18.668C89.6061 18.5653 89.6501 18.2646 89.6501 17.766V12.464C89.6501 12.332 89.5914 12.266 89.4741 12.266H85.1841C85.0521 12.266 84.9861 12.332 84.9861 12.464V22.034C84.9861 22.3713 84.8614 22.6573 84.6121 22.892C84.3774 23.1413 84.0914 23.266 83.7541 23.266H83.2261C82.8887 23.266 82.5954 23.1413 82.3461 22.892C82.1114 22.6573 81.9941 22.3713 81.9941 22.034V12.464C81.9941 12.332 81.9281 12.266 81.7961 12.266H77.7481C77.6161 12.266 77.5501 12.332 77.5501 12.464V20.054C77.5501 20.3913 77.4254 20.6846 77.1761 20.934C76.9267 21.1686 76.6334 21.286 76.2961 21.286H75.9441C75.6068 21.286 75.3134 21.1686 75.0641 20.934C74.8147 20.6846 74.6901 20.3913 74.6901 20.054V11.034C74.6901 10.6966 74.8147 10.4033 75.0641 10.154C75.3134 9.90465 75.6068 9.77998 75.9441 9.77998H81.7961C81.9281 9.77998 81.9941 9.72131 81.9941 9.60398V7.68998C81.9941 7.57265 81.9281 7.51398 81.7961 7.51398H74.8661Z" stroke="#1C1C1C" stroke-width="4" mask="url(#path-1-outside-1_135_193)"/>
<path d="M106.502 7.51398C104.786 7.88065 103.437 8.66532 102.454 9.86798C101.471 11.056 100.98 12.5153 100.98 14.246C100.98 15.3606 101.207 16.3506 101.662 17.216C102.117 18.0813 102.549 18.514 102.96 18.514C103.165 18.514 103.378 18.4186 103.598 18.228C103.818 18.0226 104.06 17.6633 104.324 17.15C104.603 16.622 104.867 15.9693 105.116 15.192C105.38 14.4 105.644 13.3586 105.908 12.068C106.187 10.7626 106.436 9.29598 106.656 7.66798C106.671 7.62398 106.656 7.58732 106.612 7.55798C106.583 7.51398 106.546 7.49931 106.502 7.51398ZM102.96 21.286C101.772 21.286 100.679 20.604 99.6821 19.24C98.6848 17.876 98.1861 16.2113 98.1861 14.246C98.1861 11.4006 99.1541 9.09065 101.09 7.31598C103.026 5.54131 105.556 4.65398 108.68 4.65398C111.203 4.65398 113.285 5.44598 114.928 7.02998C116.585 8.61398 117.414 10.6306 117.414 13.08C117.414 15.3826 116.879 17.282 115.808 18.778C114.752 20.2593 113.3 21.2053 111.452 21.616C111.1 21.6893 110.777 21.6233 110.484 21.418C110.205 21.2126 110.029 20.934 109.956 20.582L109.912 20.384C109.839 20.0613 109.897 19.7606 110.088 19.482C110.279 19.2033 110.535 19.0126 110.858 18.91C113.366 18.1326 114.62 16.1893 114.62 13.08C114.62 11.584 114.173 10.3226 113.278 9.29598C112.398 8.25465 111.239 7.61665 109.802 7.38198C109.67 7.35265 109.589 7.40398 109.56 7.53598C109.267 9.75065 108.937 11.6793 108.57 13.322C108.203 14.95 107.815 16.27 107.404 17.282C107.008 18.2793 106.561 19.086 106.062 19.702C105.563 20.3033 105.072 20.7213 104.588 20.956C104.104 21.176 103.561 21.286 102.96 21.286Z" stroke="#1C1C1C" stroke-width="4" mask="url(#path-1-outside-1_135_193)"/>
<path d="M3.74008 46.96C3.40275 46.96 3.10942 46.8353 2.86008 46.586C2.61075 46.3367 2.48608 46.0433 2.48608 45.706V40.8C2.48608 40.4626 2.61075 40.1693 2.86008 39.92C3.10942 39.6707 3.40275 39.546 3.74008 39.546H9.19608C9.32808 39.546 9.39408 39.4873 9.39408 39.37V37.5C9.39408 37.1626 9.51142 36.8693 9.74608 36.62C9.99542 36.3706 10.2888 36.246 10.6261 36.246H11.0661C11.4034 36.246 11.6968 36.3706 11.9461 36.62C12.1954 36.8693 12.3201 37.1626 12.3201 37.5V39.37C12.3201 39.4873 12.3861 39.546 12.5181 39.546H18.2601C18.5974 39.546 18.8908 39.6707 19.1401 39.92C19.3894 40.1693 19.5141 40.4626 19.5141 40.8V43.66C19.5141 46.96 18.5388 49.5633 16.5881 51.47C14.6521 53.362 11.7701 54.4913 7.94208 54.858C7.59008 54.8873 7.27475 54.792 6.99608 54.572C6.73208 54.352 6.57075 54.066 6.51208 53.714L6.46808 53.538C6.42408 53.2153 6.50475 52.922 6.71008 52.658C6.93008 52.394 7.20875 52.2473 7.54608 52.218C10.6408 51.8953 12.9141 51.0373 14.3661 49.644C15.8328 48.236 16.5661 46.2413 16.5661 43.66V42.318C16.5661 42.186 16.5074 42.12 16.3901 42.12H5.54408C5.41208 42.12 5.34608 42.186 5.34608 42.318V45.706C5.34608 46.0433 5.22142 46.3367 4.97208 46.586C4.73742 46.8353 4.45142 46.96 4.11408 46.96H3.74008Z" stroke="#1C1C1C" stroke-width="4" mask="url(#path-1-outside-1_135_193)"/>
<path d="M29.4361 54.132C29.1134 54.132 28.8348 54.0147 28.6001 53.78C28.3654 53.5453 28.2481 53.2666 28.2481 52.944C28.2481 52.6066 28.3654 52.3206 28.6001 52.086C28.8348 51.8513 29.1134 51.734 29.4361 51.734H33.6161C33.7481 51.734 33.8141 51.6753 33.8141 51.558V44.122C33.8141 44.0046 33.7481 43.946 33.6161 43.946H29.9641C29.6414 43.946 29.3628 43.8286 29.1281 43.594C28.8934 43.3593 28.7761 43.0733 28.7761 42.736C28.7761 42.4133 28.8934 42.1346 29.1281 41.9C29.3628 41.6653 29.6414 41.548 29.9641 41.548H40.4361C40.7588 41.548 41.0374 41.6653 41.2721 41.9C41.5068 42.1346 41.6241 42.4133 41.6241 42.736C41.6241 43.0733 41.5068 43.3593 41.2721 43.594C41.0374 43.8286 40.7588 43.946 40.4361 43.946H36.7841C36.6521 43.946 36.5861 44.0046 36.5861 44.122V51.558C36.5861 51.6753 36.6521 51.734 36.7841 51.734H40.9641C41.2868 51.734 41.5654 51.8513 41.8001 52.086C42.0348 52.3206 42.1521 52.6066 42.1521 52.944C42.1521 53.2666 42.0348 53.5453 41.8001 53.78C41.5654 54.0147 41.2868 54.132 40.9641 54.132H29.4361Z" stroke="#1C1C1C" stroke-width="4" mask="url(#path-1-outside-1_135_193)"/>
<path d="M51.5461 41.24C51.2088 41.24 50.9154 41.1153 50.6661 40.866C50.4314 40.6166 50.3141 40.3233 50.3141 39.986V39.7C50.3141 39.3626 50.4314 39.0693 50.6661 38.82C50.9154 38.5706 51.2088 38.446 51.5461 38.446H63.8221C63.8661 38.446 63.8954 38.4313 63.9101 38.402C63.9394 38.358 63.9394 38.3213 63.9101 38.292C63.8661 38.2333 63.8148 38.138 63.7561 38.006C63.6974 37.874 63.6461 37.7713 63.6021 37.698C63.4408 37.4193 63.4114 37.126 63.5141 36.818C63.6168 36.51 63.8074 36.2826 64.0861 36.136C64.3648 35.9893 64.6581 35.9673 64.9661 36.07C65.2741 36.158 65.5014 36.3413 65.6481 36.62C65.8388 36.972 66.1101 37.5 66.4621 38.204C66.8581 38.996 67.0341 39.7953 66.9901 40.602C66.7554 44.9433 65.5601 48.2653 63.4041 50.568C61.2481 52.8706 58.0288 54.308 53.7461 54.88C53.3941 54.924 53.0788 54.836 52.8001 54.616C52.5214 54.4106 52.3454 54.1393 52.2721 53.802L52.2281 53.538C52.1694 53.2153 52.2354 52.922 52.4261 52.658C52.6168 52.3793 52.8808 52.218 53.2181 52.174C56.6501 51.7046 59.2021 50.6267 60.8741 48.94C62.5608 47.2533 63.5508 44.7453 63.8441 41.416C63.8441 41.2986 63.7854 41.24 63.6681 41.24H51.5461ZM69.0361 36.334C69.1094 36.4806 69.2121 36.6933 69.3441 36.972C69.4908 37.2506 69.5934 37.4486 69.6521 37.566C69.7988 37.8593 69.8208 38.1526 69.7181 38.446C69.6154 38.7393 69.4174 38.9593 69.1241 39.106C68.8308 39.2526 68.5301 39.2746 68.2221 39.172C67.9288 39.0693 67.7014 38.8713 67.5401 38.578C67.4081 38.314 67.1954 37.918 66.9021 37.39C66.7554 37.0966 66.7261 36.8033 66.8141 36.51C66.9168 36.202 67.1148 35.9746 67.4081 35.828C67.7014 35.6813 68.0094 35.6593 68.3321 35.762C68.6548 35.8646 68.8894 36.0553 69.0361 36.334Z" stroke="#1C1C1C" stroke-width="4" mask="url(#path-1-outside-1_135_193)"/>
<path d="M74.7121 54.968L74.2941 54.462C73.7954 53.846 73.7001 53.1493 74.0081 52.372C74.8734 50.1866 75.3061 47.158 75.3061 43.286V37.874C75.3061 37.5366 75.4234 37.2433 75.6581 36.994C75.9074 36.7446 76.2008 36.62 76.5381 36.62H91.6961C92.0334 36.62 92.3194 36.7446 92.5541 36.994C92.8034 37.2433 92.9281 37.5366 92.9281 37.874V40.778C92.9281 41.1153 92.8034 41.4086 92.5541 41.658C92.3194 41.9073 92.0334 42.032 91.6961 42.032H78.2761C78.1441 42.032 78.0781 42.0906 78.0781 42.208V42.934C78.0781 42.978 78.1001 43.022 78.1441 43.066C78.1881 43.0953 78.2321 43.1026 78.2761 43.088C78.2908 43.088 78.3127 43.088 78.3421 43.088C78.3714 43.0733 78.3934 43.066 78.4081 43.066H92.3561C92.6348 43.066 92.8768 43.176 93.0821 43.396C93.3021 43.6013 93.4121 43.8433 93.4121 44.122C93.4121 44.4006 93.3021 44.65 93.0821 44.87C92.8768 45.0753 92.6348 45.178 92.3561 45.178H90.9261C90.8968 45.178 90.8748 45.2 90.8601 45.244C90.8454 45.2733 90.8454 45.3026 90.8601 45.332C91.4468 46.0066 92.0481 46.7326 92.6641 47.51C92.8694 47.774 92.9354 48.0673 92.8621 48.39C92.8034 48.7126 92.6274 48.9546 92.3341 49.116L92.2461 49.16C91.9381 49.336 91.6081 49.3873 91.2561 49.314C90.9187 49.2406 90.6401 49.0646 90.4201 48.786C90.4054 48.7713 90.3834 48.7493 90.3541 48.72C90.3394 48.6906 90.3247 48.6686 90.3101 48.654C90.2074 48.5366 90.0974 48.4853 89.9801 48.5C88.6307 48.6466 87.6261 48.7493 86.9661 48.808C86.8341 48.808 86.7681 48.874 86.7681 49.006V49.974C86.7681 50.0913 86.8341 50.15 86.9661 50.15H91.4761C91.7547 50.15 91.9894 50.2526 92.1801 50.458C92.3854 50.6486 92.4881 50.8833 92.4881 51.162C92.4881 51.4553 92.3854 51.7046 92.1801 51.91C91.9894 52.1006 91.7547 52.196 91.4761 52.196H86.9661C86.8341 52.196 86.7681 52.2546 86.7681 52.372V53.252C86.7681 53.3693 86.8341 53.428 86.9661 53.428H92.5761C92.8841 53.428 93.1481 53.538 93.3681 53.758C93.5881 53.978 93.6981 54.242 93.6981 54.55C93.6981 54.858 93.5881 55.122 93.3681 55.342C93.1481 55.5767 92.8841 55.694 92.5761 55.694H77.7481C77.4401 55.694 77.1761 55.5767 76.9561 55.342C76.7361 55.122 76.6261 54.858 76.6261 54.55C76.6261 54.242 76.7361 53.978 76.9561 53.758C77.1761 53.538 77.4401 53.428 77.7481 53.428H83.6441C83.7761 53.428 83.8421 53.3693 83.8421 53.252V52.372C83.8421 52.2546 83.7761 52.196 83.6441 52.196H79.3541C79.0754 52.196 78.8334 52.1006 78.6281 51.91C78.4374 51.7046 78.3421 51.4553 78.3421 51.162C78.3421 50.8833 78.4374 50.6486 78.6281 50.458C78.8187 50.2526 79.0607 50.15 79.3541 50.15H83.6441C83.7761 50.15 83.8421 50.0913 83.8421 49.974V49.248C83.8421 49.1306 83.7761 49.072 83.6441 49.072C81.8254 49.1893 80.4761 49.2626 79.5961 49.292C79.3028 49.3066 79.0461 49.2186 78.8261 49.028C78.6207 48.8226 78.5034 48.5733 78.4741 48.28C78.4594 47.9867 78.5548 47.7373 78.7601 47.532C78.9654 47.312 79.2074 47.1946 79.4861 47.18C79.5154 47.18 79.5668 47.18 79.6401 47.18C79.7134 47.1653 79.7647 47.158 79.7941 47.158C79.9114 47.158 80.0068 47.0993 80.0801 46.982C80.4174 46.4393 80.7254 45.8893 81.0041 45.332C81.0187 45.3026 81.0114 45.2733 80.9821 45.244C80.9674 45.2 80.9381 45.178 80.8941 45.178H78.2761C78.1441 45.1486 78.0781 45.1926 78.0781 45.31C78.0781 49.1526 77.4254 52.3353 76.1201 54.858C75.9734 55.122 75.7461 55.2613 75.4381 55.276C75.1447 55.3053 74.9027 55.2026 74.7121 54.968ZM83.2041 46.85C83.1454 46.938 83.1821 46.982 83.3141 46.982C85.0154 46.8646 86.7241 46.7326 88.4401 46.586C88.4694 46.586 88.4914 46.5786 88.5061 46.564C88.5207 46.5346 88.5207 46.5126 88.5061 46.498C88.5061 46.4686 88.4988 46.4393 88.4841 46.41C88.3814 46.278 88.2201 46.0946 88.0001 45.86C87.7948 45.6253 87.6408 45.442 87.5381 45.31C87.4794 45.222 87.3767 45.178 87.2301 45.178H84.2821C84.1354 45.178 84.0401 45.2366 83.9961 45.354C83.6441 46.0286 83.3801 46.5273 83.2041 46.85ZM78.0781 38.996V39.832C78.0781 39.964 78.1441 40.03 78.2761 40.03H89.8481C89.9801 40.03 90.0461 39.964 90.0461 39.832V38.996C90.0461 38.864 89.9801 38.798 89.8481 38.798H78.2761C78.1441 38.798 78.0781 38.864 78.0781 38.996Z" stroke="#1C1C1C" stroke-width="4" mask="url(#path-1-outside-1_135_193)"/>
<path d="M100.166 41.746C99.8288 41.746 99.5354 41.6286 99.2861 41.394C99.0514 41.1446 98.9341 40.8513 98.9341 40.514C98.9341 40.162 99.0514 39.8686 99.2861 39.634C99.5354 39.3846 99.8361 39.26 100.188 39.26C101.992 39.26 104.713 39.216 108.35 39.128C108.497 39.128 108.555 39.0693 108.526 38.952C108.482 38.556 108.438 38.138 108.394 37.698C108.365 37.3606 108.46 37.0673 108.68 36.818C108.915 36.5686 109.208 36.4293 109.56 36.4H109.846C110.183 36.3706 110.484 36.4733 110.748 36.708C111.027 36.9426 111.173 37.2286 111.188 37.566C111.203 37.698 111.217 37.9106 111.232 38.204C111.261 38.4973 111.283 38.7173 111.298 38.864C111.327 38.9813 111.401 39.04 111.518 39.04C113.234 38.9813 114.539 38.93 115.434 38.886C115.771 38.8713 116.065 38.9813 116.314 39.216C116.563 39.4506 116.695 39.7366 116.71 40.074C116.725 40.4113 116.607 40.712 116.358 40.976C116.123 41.2253 115.837 41.3573 115.5 41.372L111.936 41.504C111.819 41.504 111.775 41.57 111.804 41.702C112.171 43.154 112.787 44.628 113.652 46.124C113.813 46.4026 113.85 46.7106 113.762 47.048C113.674 47.3853 113.483 47.6273 113.19 47.774L112.772 47.972C112.097 48.324 111.371 48.3093 110.594 47.928C109.274 47.2826 107.925 46.96 106.546 46.96C105.431 46.96 104.566 47.1873 103.95 47.642C103.334 48.082 103.026 48.6833 103.026 49.446C103.026 50.458 103.481 51.2427 104.39 51.8C105.299 52.3427 106.656 52.614 108.46 52.614C109.575 52.614 110.946 52.4893 112.574 52.24C112.911 52.1813 113.219 52.2547 113.498 52.46C113.791 52.6507 113.967 52.9147 114.026 53.252V53.296C114.099 53.6333 114.033 53.9413 113.828 54.22C113.637 54.4986 113.373 54.6673 113.036 54.726C111.335 54.9753 109.809 55.1 108.46 55.1C105.644 55.1 103.547 54.572 102.168 53.516C100.789 52.46 100.1 51.0593 100.1 49.314C100.1 47.8473 100.657 46.674 101.772 45.794C102.887 44.914 104.434 44.474 106.414 44.474C107.675 44.474 108.922 44.716 110.154 45.2H110.198C110.213 45.1853 110.22 45.1706 110.22 45.156C109.721 44.144 109.325 43.022 109.032 41.79C109.003 41.6726 108.915 41.614 108.768 41.614C105.893 41.702 103.026 41.746 100.166 41.746Z" stroke="#1C1C1C" stroke-width="4" mask="url(#path-1-outside-1_135_193)"/>
<path d="M123.904 54.77C123.581 54.6526 123.347 54.4326 123.2 54.11C123.068 53.802 123.061 53.4866 123.178 53.164C125.466 47.2973 127.505 42.1346 129.294 37.676C129.426 37.3533 129.653 37.1186 129.976 36.972C130.299 36.8106 130.629 36.7813 130.966 36.884L131.208 36.95C131.531 37.0526 131.758 37.258 131.89 37.566C132.037 37.8593 132.051 38.16 131.934 38.468C131.201 40.2867 130.335 42.472 129.338 45.024V45.068H129.382C130.159 44.5253 130.893 44.254 131.582 44.254C132.535 44.254 133.291 44.6206 133.848 45.354C134.42 46.0726 134.823 47.29 135.058 49.006C135.234 50.282 135.432 51.1473 135.652 51.602C135.872 52.042 136.158 52.262 136.51 52.262C137.375 52.262 138.204 50.9566 138.996 48.346C139.099 48.0086 139.297 47.7593 139.59 47.598C139.883 47.4366 140.191 47.4 140.514 47.488L140.646 47.532C140.983 47.62 141.24 47.818 141.416 48.126C141.592 48.4193 141.629 48.7273 141.526 49.05C140.866 51.2353 140.133 52.768 139.326 53.648C138.519 54.5133 137.551 54.946 136.422 54.946C135.307 54.946 134.435 54.572 133.804 53.824C133.173 53.076 132.711 51.7706 132.418 49.908C132.227 48.7786 132.015 48.0013 131.78 47.576C131.545 47.136 131.259 46.916 130.922 46.916C130.218 46.916 129.47 47.444 128.678 48.5C127.886 49.556 126.918 51.4333 125.774 54.132C125.642 54.4546 125.415 54.682 125.092 54.814C124.769 54.9607 124.447 54.9753 124.124 54.858L123.904 54.77Z" stroke="#1C1C1C" stroke-width="4" mask="url(#path-1-outside-1_135_193)"/>
</svg>
