<svg width="28" height="27" viewBox="0 0 28 27" fill="none" xmlns="http://www.w3.org/2000/svg">
<path d="M14 0C21.7192 0 28 5.096 28 11.361C28 13.8688 27.0287 16.1263 24.9987 18.3505C22.0622 21.7315 15.4945 25.8492 14 26.4792C12.5475 27.0917 12.7155 26.1345 12.782 25.7565L12.7873 25.725L12.9868 24.5263C13.034 24.1693 13.083 23.6145 12.9412 23.261C12.7837 22.8707 12.1642 22.6678 11.7092 22.5698C4.9805 21.6825 0 16.9768 0 11.361C0 5.096 6.2825 0 14 0ZM8.7885 13.4505H6.11975V8.6065C6.11975 8.5344 6.09123 8.46522 6.04041 8.41408C5.98959 8.36293 5.9206 8.33396 5.8485 8.3335H4.865C4.82915 8.3335 4.79365 8.34056 4.76053 8.35428C4.72741 8.368 4.69731 8.38811 4.67196 8.41346C4.64661 8.43881 4.6265 8.46891 4.61278 8.50203C4.59906 8.53515 4.592 8.57065 4.592 8.6065V14.707C4.592 14.7788 4.62175 14.847 4.669 14.8942V14.896L4.6725 14.8995L4.676 14.903C4.70091 14.9275 4.73046 14.9468 4.76291 14.9597C4.79537 14.9726 4.83007 14.9789 4.865 14.9783H8.7885C8.939 14.9783 9.05975 14.8557 9.05975 14.7052V13.7252C9.05998 13.6894 9.05315 13.6539 9.03964 13.6206C9.02613 13.5874 9.00622 13.5572 8.98103 13.5317C8.95584 13.5062 8.92587 13.4859 8.89284 13.4719C8.85981 13.458 8.82435 13.4507 8.7885 13.4505ZM10.1728 8.3335C10.1003 8.3335 10.0309 8.36226 9.97971 8.41346C9.92851 8.46466 9.89975 8.5341 9.89975 8.6065V14.707C9.89975 14.8575 10.0223 14.9783 10.1728 14.9783H11.1562C11.3068 14.9783 11.4275 14.8558 11.4275 14.707V8.6065C11.4275 8.5344 11.399 8.46522 11.3482 8.41408C11.2973 8.36293 11.2284 8.33396 11.1562 8.3335H10.1728ZM16.933 8.3335C16.8606 8.3335 16.7912 8.36226 16.74 8.41346C16.6888 8.46466 16.66 8.5341 16.66 8.6065V12.229L13.8652 8.456L13.8425 8.42975L13.825 8.4105L13.8197 8.40525L13.8005 8.3895L13.79 8.3825L13.7847 8.379L13.776 8.37375L13.762 8.365H13.7585L13.7533 8.3615L13.7357 8.3545L13.7287 8.351L13.7113 8.34575H13.7078L13.7025 8.344L13.6868 8.3405H13.6763L13.671 8.33875H13.664L13.6605 8.337H12.656C12.5839 8.337 12.5147 8.36552 12.4636 8.41634C12.4124 8.46716 12.3835 8.53615 12.383 8.60825V14.7087C12.383 14.8592 12.5055 14.98 12.656 14.98H13.636C13.7882 14.98 13.9107 14.8575 13.9107 14.7087V11.0863L16.7107 14.8662C16.7304 14.8914 16.7533 14.9138 16.779 14.9327L16.7807 14.9345L16.7982 14.945L16.8052 14.9485L16.8193 14.9555L16.8315 14.9607L16.8403 14.9642L16.8578 14.9695H16.863C16.8859 14.9754 16.9094 14.9789 16.933 14.98H17.913C18.0653 14.98 18.1877 14.8575 18.1877 14.7087V8.6065C18.1877 8.5341 18.159 8.46466 18.1078 8.41346C18.0566 8.36226 17.9872 8.3335 17.9148 8.3335H16.933ZM23.6093 9.58825V8.60825C23.6095 8.5724 23.6026 8.53685 23.5891 8.50364C23.5756 8.47043 23.5557 8.44021 23.5305 8.4147C23.5053 8.38918 23.4754 8.36888 23.4423 8.35495C23.4093 8.34102 23.3739 8.33373 23.338 8.3335H19.4145C19.3441 8.33448 19.2766 8.36197 19.2255 8.4105H19.2237L19.222 8.414L19.2185 8.41925C19.1704 8.46988 19.1429 8.53666 19.1415 8.6065V14.707C19.1415 14.7788 19.1713 14.847 19.2185 14.8942L19.222 14.8995L19.2255 14.903C19.2768 14.9509 19.3443 14.9777 19.4145 14.9783H23.338C23.4885 14.9783 23.6093 14.8557 23.6093 14.7052V13.7252C23.6095 13.6894 23.6026 13.6539 23.5891 13.6206C23.5756 13.5874 23.5557 13.5572 23.5305 13.5317C23.5053 13.5062 23.4754 13.4859 23.4423 13.4719C23.4093 13.458 23.3739 13.4507 23.338 13.4505H20.6675V12.4198H23.3363C23.4868 12.4198 23.6075 12.2972 23.6075 12.1467V11.1668C23.6077 11.1309 23.6009 11.0954 23.5874 11.0621C23.5739 11.0289 23.554 10.9987 23.5288 10.9732C23.5036 10.9477 23.4736 10.9274 23.4406 10.9134C23.4076 10.8995 23.3721 10.8922 23.3363 10.892H20.6675V9.86125H23.3363C23.4868 9.86125 23.6075 9.73875 23.6075 9.58825H23.6093Z" fill="white"/>
</svg>
