<svg width="63" height="42" viewBox="0 0 63 42" fill="none" xmlns="http://www.w3.org/2000/svg">
<g filter="url(#filter0_d_288_475)">
<path d="M35.7326 33C37.7166 30.984 39.6206 29.048 41.4446 27.192C43.2686 25.304 44.9006 23.496 46.3406 21.768C47.8126 20.008 48.9646 18.312 49.7966 16.68C50.6606 15.048 51.0926 13.464 51.0926 11.928C51.0926 11.256 50.9646 10.648 50.7086 10.104C50.4846 9.55999 50.1486 9.09599 49.7006 8.71199C49.2846 8.32799 48.7726 8.03999 48.1646 7.84799C47.5886 7.62399 46.9326 7.51199 46.1966 7.51199C45.4606 7.51199 44.8046 7.62399 44.2286 7.84799C43.6526 8.03999 43.1726 8.31199 42.7886 8.66399C42.4046 9.01599 42.1006 9.39999 41.8766 9.81599C41.6846 10.232 41.5886 10.664 41.5886 11.112C41.5886 12.136 41.7486 13.048 42.0686 13.848C42.4206 14.616 42.8846 15.304 43.4606 15.912L39.1886 19.8C38.2606 19.352 37.4606 18.6 36.7886 17.544C36.1486 16.488 35.6526 15.384 35.3006 14.232C34.9806 13.048 34.8206 12.072 34.8206 11.304C34.8206 9.54399 35.3006 7.86399 36.2606 6.26399C37.2526 4.66399 38.6766 3.35199 40.5326 2.32799C42.4206 1.30399 44.7086 0.791992 47.3966 0.791992C49.6046 0.791992 51.5246 1.28799 53.1566 2.27999C54.7886 3.27199 56.0526 4.58399 56.9486 6.21599C57.8766 7.81599 58.3406 9.52799 58.3406 11.352C58.3406 12.792 58.1166 14.184 57.6686 15.528C57.2206 16.872 56.5966 18.2 55.7966 19.512C55.0286 20.792 54.1486 22.072 53.1566 23.352C52.1646 24.6 51.1406 25.88 50.0846 27.192L46.9166 26.28H58.7246V33H35.7326Z" fill="#FF6F00"/>
</g>
<g filter="url(#filter1_d_288_475)">
<path d="M18.0719 33.048C16.2479 33.048 14.5199 32.728 12.8879 32.088C11.2879 31.448 9.86393 30.472 8.61593 29.16C7.39993 27.816 6.43993 26.136 5.73593 24.12C5.03193 22.072 4.67993 19.672 4.67993 16.92C4.67993 13.848 5.01593 11.288 5.68793 9.23999C6.35993 7.15999 7.28793 5.49599 8.47193 4.24799C9.68793 2.99999 11.1119 2.11999 12.7439 1.60799C14.3759 1.06399 16.1519 0.791992 18.0719 0.791992C19.8959 0.791992 21.6079 1.11199 23.2079 1.75199C24.8399 2.39199 26.2639 3.38399 27.4799 4.72799C28.7279 6.03999 29.7039 7.71999 30.4079 9.76799C31.1119 11.784 31.4639 14.168 31.4639 16.92C31.4639 19.768 31.1119 22.216 30.4079 24.264C29.7039 26.312 28.7279 27.992 27.4799 29.304C26.2319 30.584 24.8079 31.528 23.2079 32.136C21.6079 32.744 19.8959 33.048 18.0719 33.048ZM18.0239 26.376C19.6239 26.376 20.8719 25.96 21.7679 25.128C22.6639 24.264 23.2879 23.096 23.6399 21.624C24.0239 20.152 24.2159 18.52 24.2159 16.728C24.2159 14.968 24.0239 13.4 23.6399 12.024C23.2879 10.648 22.6639 9.55999 21.7679 8.75999C20.8719 7.92799 19.6239 7.51199 18.0239 7.51199C16.4559 7.51199 15.2239 7.92799 14.3279 8.75999C13.4319 9.59199 12.8079 10.712 12.4559 12.12C12.1039 13.528 11.9279 15.112 11.9279 16.872C11.9279 18.632 12.1039 20.232 12.4559 21.672C12.8079 23.112 13.4319 24.264 14.3279 25.128C15.2239 25.96 16.4559 26.376 18.0239 26.376Z" fill="#FF6F00"/>
</g>
<defs>
<filter id="filter0_d_288_475" x="30.8206" y="0.791992" width="31.9041" height="40.208" filterUnits="userSpaceOnUse" color-interpolation-filters="sRGB">
<feFlood flood-opacity="0" result="BackgroundImageFix"/>
<feColorMatrix in="SourceAlpha" type="matrix" values="0 0 0 0 0 0 0 0 0 0 0 0 0 0 0 0 0 0 127 0" result="hardAlpha"/>
<feOffset dy="4"/>
<feGaussianBlur stdDeviation="2"/>
<feComposite in2="hardAlpha" operator="out"/>
<feColorMatrix type="matrix" values="0 0 0 0 0 0 0 0 0 0 0 0 0 0 0 0 0 0 0.25 0"/>
<feBlend mode="normal" in2="BackgroundImageFix" result="effect1_dropShadow_288_475"/>
<feBlend mode="normal" in="SourceGraphic" in2="effect1_dropShadow_288_475" result="shape"/>
</filter>
<filter id="filter1_d_288_475" x="0.679932" y="0.791992" width="34.7839" height="40.2559" filterUnits="userSpaceOnUse" color-interpolation-filters="sRGB">
<feFlood flood-opacity="0" result="BackgroundImageFix"/>
<feColorMatrix in="SourceAlpha" type="matrix" values="0 0 0 0 0 0 0 0 0 0 0 0 0 0 0 0 0 0 127 0" result="hardAlpha"/>
<feOffset dy="4"/>
<feGaussianBlur stdDeviation="2"/>
<feComposite in2="hardAlpha" operator="out"/>
<feColorMatrix type="matrix" values="0 0 0 0 0 0 0 0 0 0 0 0 0 0 0 0 0 0 0.25 0"/>
<feBlend mode="normal" in2="BackgroundImageFix" result="effect1_dropShadow_288_475"/>
<feBlend mode="normal" in="SourceGraphic" in2="effect1_dropShadow_288_475" result="shape"/>
</filter>
</defs>
</svg>
