<svg width="60" height="42" viewBox="0 0 60 42" fill="none" xmlns="http://www.w3.org/2000/svg">
<g filter="url(#filter0_d_288_467)">
<path d="M55.0285 1.17578L47.8285 14.9998L44.0365 12.9358C44.3565 12.8078 44.6925 12.7118 45.0445 12.6478C45.4285 12.5838 45.7805 12.5518 46.1005 12.5518C47.2205 12.5198 48.3405 12.6478 49.4605 12.9358C50.5805 13.2238 51.5885 13.7358 52.4845 14.4718C53.4125 15.2078 54.1485 16.2158 54.6925 17.4958C55.2685 18.7758 55.5565 20.4078 55.5565 22.3918C55.5565 24.6958 55.0125 26.6798 53.9245 28.3438C52.8685 29.9758 51.4765 31.2238 49.7485 32.0878C48.0205 32.9518 46.1485 33.3838 44.1325 33.3838C42.5645 33.3838 40.9165 33.0638 39.1885 32.4238C37.4605 31.7518 36.0845 30.8718 35.0605 29.7838L38.6125 24.0238C39.0925 24.6318 39.8285 25.2238 40.8205 25.7998C41.8125 26.3758 42.8525 26.6638 43.9405 26.6638C44.6445 26.6638 45.3325 26.4878 46.0045 26.1358C46.6765 25.7838 47.2365 25.2558 47.6845 24.5518C48.1325 23.8478 48.3565 22.9838 48.3565 21.9598C48.3565 20.5518 47.9565 19.4318 47.1565 18.5998C46.3885 17.7678 45.3005 17.3518 43.8925 17.3518C42.9325 17.3518 42.1965 17.3998 41.6845 17.4958C41.2045 17.5598 40.7245 17.6558 40.2445 17.7838L40.1005 17.5918L45.7165 7.07978L47.7325 7.89578H37.7005V1.17578H55.0285Z" fill="#FF6F00"/>
</g>
<g filter="url(#filter1_d_288_467)">
<path d="M18.0719 33.048C16.2479 33.048 14.5199 32.728 12.8879 32.088C11.2879 31.448 9.86393 30.472 8.61593 29.16C7.39993 27.816 6.43993 26.136 5.73593 24.12C5.03193 22.072 4.67993 19.672 4.67993 16.92C4.67993 13.848 5.01593 11.288 5.68793 9.23999C6.35993 7.15999 7.28793 5.49599 8.47193 4.24799C9.68793 2.99999 11.1119 2.11999 12.7439 1.60799C14.3759 1.06399 16.1519 0.791992 18.0719 0.791992C19.8959 0.791992 21.6079 1.11199 23.2079 1.75199C24.8399 2.39199 26.2639 3.38399 27.4799 4.72799C28.7279 6.03999 29.7039 7.71999 30.4079 9.76799C31.1119 11.784 31.4639 14.168 31.4639 16.92C31.4639 19.768 31.1119 22.216 30.4079 24.264C29.7039 26.312 28.7279 27.992 27.4799 29.304C26.2319 30.584 24.8079 31.528 23.2079 32.136C21.6079 32.744 19.8959 33.048 18.0719 33.048ZM18.0239 26.376C19.6239 26.376 20.8719 25.96 21.7679 25.128C22.6639 24.264 23.2879 23.096 23.6399 21.624C24.0239 20.152 24.2159 18.52 24.2159 16.728C24.2159 14.968 24.0239 13.4 23.6399 12.024C23.2879 10.648 22.6639 9.55999 21.7679 8.75999C20.8719 7.92799 19.6239 7.51199 18.0239 7.51199C16.4559 7.51199 15.2239 7.92799 14.3279 8.75999C13.4319 9.59199 12.8079 10.712 12.4559 12.12C12.1039 13.528 11.9279 15.112 11.9279 16.872C11.9279 18.632 12.1039 20.232 12.4559 21.672C12.8079 23.112 13.4319 24.264 14.3279 25.128C15.2239 25.96 16.4559 26.376 18.0239 26.376Z" fill="#FF6F00"/>
</g>
<defs>
<filter id="filter0_d_288_467" x="31.0605" y="1.17578" width="28.4961" height="40.208" filterUnits="userSpaceOnUse" color-interpolation-filters="sRGB">
<feFlood flood-opacity="0" result="BackgroundImageFix"/>
<feColorMatrix in="SourceAlpha" type="matrix" values="0 0 0 0 0 0 0 0 0 0 0 0 0 0 0 0 0 0 127 0" result="hardAlpha"/>
<feOffset dy="4"/>
<feGaussianBlur stdDeviation="2"/>
<feComposite in2="hardAlpha" operator="out"/>
<feColorMatrix type="matrix" values="0 0 0 0 0 0 0 0 0 0 0 0 0 0 0 0 0 0 0.25 0"/>
<feBlend mode="normal" in2="BackgroundImageFix" result="effect1_dropShadow_288_467"/>
<feBlend mode="normal" in="SourceGraphic" in2="effect1_dropShadow_288_467" result="shape"/>
</filter>
<filter id="filter1_d_288_467" x="0.679932" y="0.791992" width="34.7839" height="40.2559" filterUnits="userSpaceOnUse" color-interpolation-filters="sRGB">
<feFlood flood-opacity="0" result="BackgroundImageFix"/>
<feColorMatrix in="SourceAlpha" type="matrix" values="0 0 0 0 0 0 0 0 0 0 0 0 0 0 0 0 0 0 127 0" result="hardAlpha"/>
<feOffset dy="4"/>
<feGaussianBlur stdDeviation="2"/>
<feComposite in2="hardAlpha" operator="out"/>
<feColorMatrix type="matrix" values="0 0 0 0 0 0 0 0 0 0 0 0 0 0 0 0 0 0 0.25 0"/>
<feBlend mode="normal" in2="BackgroundImageFix" result="effect1_dropShadow_288_467"/>
<feBlend mode="normal" in="SourceGraphic" in2="effect1_dropShadow_288_467" result="shape"/>
</filter>
</defs>
</svg>
