<svg width="60" height="42" viewBox="0 0 60 42" fill="none" xmlns="http://www.w3.org/2000/svg">
<g filter="url(#filter0_d_288_471)">
<path d="M44.7565 33.3838C42.8685 33.3838 41.0285 33.0318 39.2365 32.3278C37.4445 31.6238 36.0525 30.7758 35.0605 29.7838L38.6605 24.2158C39.2365 24.9198 40.0525 25.5118 41.1085 25.9918C42.1965 26.4398 43.2365 26.6638 44.2285 26.6638C44.9645 26.6638 45.6525 26.5038 46.2925 26.1838C46.9325 25.8638 47.4445 25.3838 47.8285 24.7438C48.2125 24.1038 48.4045 23.3198 48.4045 22.3918C48.4045 21.3678 48.1965 20.4718 47.7805 19.7038C47.3965 18.9358 46.8205 18.3438 46.0525 17.9278C45.3165 17.4798 44.4365 17.2558 43.4125 17.2558C42.4205 17.2558 41.4765 17.3998 40.5805 17.6878C39.6845 17.9438 38.6285 18.3918 37.4125 19.0318H37.3645V1.17578H53.2525V7.89578H43.3645V13.0318L42.5485 11.5918C42.9965 11.5278 43.4285 11.4798 43.8445 11.4478C44.2605 11.4158 44.6765 11.3998 45.0925 11.3998C47.3325 11.3998 49.2205 11.8958 50.7565 12.8878C52.3245 13.8798 53.5245 15.1918 54.3565 16.8238C55.1885 18.4558 55.6045 20.2318 55.6045 22.1518C55.6045 24.2638 55.1245 26.1678 54.1645 27.8638C53.2045 29.5598 51.8925 30.9038 50.2285 31.8958C48.5965 32.8878 46.7725 33.3838 44.7565 33.3838Z" fill="#FF6F00"/>
</g>
<g filter="url(#filter1_d_288_471)">
<path d="M18.0719 33.048C16.2479 33.048 14.5199 32.728 12.8879 32.088C11.2879 31.448 9.86393 30.472 8.61593 29.16C7.39993 27.816 6.43993 26.136 5.73593 24.12C5.03193 22.072 4.67993 19.672 4.67993 16.92C4.67993 13.848 5.01593 11.288 5.68793 9.23999C6.35993 7.15999 7.28793 5.49599 8.47193 4.24799C9.68793 2.99999 11.1119 2.11999 12.7439 1.60799C14.3759 1.06399 16.1519 0.791992 18.0719 0.791992C19.8959 0.791992 21.6079 1.11199 23.2079 1.75199C24.8399 2.39199 26.2639 3.38399 27.4799 4.72799C28.7279 6.03999 29.7039 7.71999 30.4079 9.76799C31.1119 11.784 31.4639 14.168 31.4639 16.92C31.4639 19.768 31.1119 22.216 30.4079 24.264C29.7039 26.312 28.7279 27.992 27.4799 29.304C26.2319 30.584 24.8079 31.528 23.2079 32.136C21.6079 32.744 19.8959 33.048 18.0719 33.048ZM18.0239 26.376C19.6239 26.376 20.8719 25.96 21.7679 25.128C22.6639 24.264 23.2879 23.096 23.6399 21.624C24.0239 20.152 24.2159 18.52 24.2159 16.728C24.2159 14.968 24.0239 13.4 23.6399 12.024C23.2879 10.648 22.6639 9.55999 21.7679 8.75999C20.8719 7.92799 19.6239 7.51199 18.0239 7.51199C16.4559 7.51199 15.2239 7.92799 14.3279 8.75999C13.4319 9.59199 12.8079 10.712 12.4559 12.12C12.1039 13.528 11.9279 15.112 11.9279 16.872C11.9279 18.632 12.1039 20.232 12.4559 21.672C12.8079 23.112 13.4319 24.264 14.3279 25.128C15.2239 25.96 16.4559 26.376 18.0239 26.376Z" fill="#FF6F00"/>
</g>
<defs>
<filter id="filter0_d_288_471" x="31.0605" y="1.17578" width="28.5439" height="40.208" filterUnits="userSpaceOnUse" color-interpolation-filters="sRGB">
<feFlood flood-opacity="0" result="BackgroundImageFix"/>
<feColorMatrix in="SourceAlpha" type="matrix" values="0 0 0 0 0 0 0 0 0 0 0 0 0 0 0 0 0 0 127 0" result="hardAlpha"/>
<feOffset dy="4"/>
<feGaussianBlur stdDeviation="2"/>
<feComposite in2="hardAlpha" operator="out"/>
<feColorMatrix type="matrix" values="0 0 0 0 0 0 0 0 0 0 0 0 0 0 0 0 0 0 0.25 0"/>
<feBlend mode="normal" in2="BackgroundImageFix" result="effect1_dropShadow_288_471"/>
<feBlend mode="normal" in="SourceGraphic" in2="effect1_dropShadow_288_471" result="shape"/>
</filter>
<filter id="filter1_d_288_471" x="0.679932" y="0.791992" width="34.7839" height="40.2559" filterUnits="userSpaceOnUse" color-interpolation-filters="sRGB">
<feFlood flood-opacity="0" result="BackgroundImageFix"/>
<feColorMatrix in="SourceAlpha" type="matrix" values="0 0 0 0 0 0 0 0 0 0 0 0 0 0 0 0 0 0 127 0" result="hardAlpha"/>
<feOffset dy="4"/>
<feGaussianBlur stdDeviation="2"/>
<feComposite in2="hardAlpha" operator="out"/>
<feColorMatrix type="matrix" values="0 0 0 0 0 0 0 0 0 0 0 0 0 0 0 0 0 0 0.25 0"/>
<feBlend mode="normal" in2="BackgroundImageFix" result="effect1_dropShadow_288_471"/>
<feBlend mode="normal" in="SourceGraphic" in2="effect1_dropShadow_288_471" result="shape"/>
</filter>
</defs>
</svg>
