<svg width="63" height="42" viewBox="0 0 63 42" fill="none" xmlns="http://www.w3.org/2000/svg">
<g filter="url(#filter0_d_288_483)">
<path d="M46.8686 33.3835C44.5646 33.3835 42.4846 32.8395 40.6286 31.7515C38.7726 30.6635 37.3006 29.0635 36.2126 26.9515C35.1246 24.8395 34.5806 22.2635 34.5806 19.2235C34.5806 17.3355 34.9326 15.5115 35.6366 13.7515C36.3726 11.9595 37.3646 10.2635 38.6126 8.66352C39.8926 7.03152 41.3646 5.51152 43.0286 4.10352C44.6926 2.69552 46.4686 1.43152 48.3566 0.311523L53.0126 5.35152C50.4526 6.34352 48.3566 7.62352 46.7246 9.19152C45.0926 10.7275 43.8926 12.3275 43.1246 13.9915C42.3566 15.6555 41.9726 17.1915 41.9726 18.5995L40.2446 18.4075C41.1086 16.3915 42.2126 14.8235 43.5566 13.7035C44.9326 12.5835 46.8366 12.0235 49.2686 12.0235C50.8046 12.0235 52.2926 12.4555 53.7326 13.3195C55.1726 14.1835 56.3406 15.3835 57.2366 16.9195C58.1646 18.4555 58.6286 20.2475 58.6286 22.2955C58.6286 24.6635 58.0526 26.6795 56.9006 28.3435C55.7806 29.9755 54.3246 31.2235 52.5326 32.0875C50.7406 32.9515 48.8526 33.3835 46.8686 33.3835ZM46.5806 27.1435C47.5086 27.1435 48.3246 26.9675 49.0286 26.6155C49.7646 26.2315 50.3406 25.6875 50.7566 24.9835C51.1726 24.2475 51.3806 23.3675 51.3806 22.3435C51.3806 21.3515 51.1566 20.5355 50.7086 19.8955C50.2926 19.2235 49.7166 18.7275 48.9806 18.4075C48.2766 18.0555 47.4766 17.8795 46.5806 17.8795C45.6846 17.8795 44.8686 18.0555 44.1326 18.4075C43.4286 18.7275 42.8526 19.1755 42.4046 19.7515C41.9886 20.2955 41.7806 20.8875 41.7806 21.5275V22.6795C41.7806 23.4475 41.9886 24.1675 42.4046 24.8395C42.8206 25.5115 43.3966 26.0715 44.1326 26.5195C44.8686 26.9355 45.6846 27.1435 46.5806 27.1435Z" fill="#FF6F00"/>
</g>
<g filter="url(#filter1_d_288_483)">
<path d="M18.0719 33.048C16.2479 33.048 14.5199 32.728 12.8879 32.088C11.2879 31.448 9.86393 30.472 8.61593 29.16C7.39993 27.816 6.43993 26.136 5.73593 24.12C5.03193 22.072 4.67993 19.672 4.67993 16.92C4.67993 13.848 5.01593 11.288 5.68793 9.23999C6.35993 7.15999 7.28793 5.49599 8.47193 4.24799C9.68793 2.99999 11.1119 2.11999 12.7439 1.60799C14.3759 1.06399 16.1519 0.791992 18.0719 0.791992C19.8959 0.791992 21.6079 1.11199 23.2079 1.75199C24.8399 2.39199 26.2639 3.38399 27.4799 4.72799C28.7279 6.03999 29.7039 7.71999 30.4079 9.76799C31.1119 11.784 31.4639 14.168 31.4639 16.92C31.4639 19.768 31.1119 22.216 30.4079 24.264C29.7039 26.312 28.7279 27.992 27.4799 29.304C26.2319 30.584 24.8079 31.528 23.2079 32.136C21.6079 32.744 19.8959 33.048 18.0719 33.048ZM18.0239 26.376C19.6239 26.376 20.8719 25.96 21.7679 25.128C22.6639 24.264 23.2879 23.096 23.6399 21.624C24.0239 20.152 24.2159 18.52 24.2159 16.728C24.2159 14.968 24.0239 13.4 23.6399 12.024C23.2879 10.648 22.6639 9.55999 21.7679 8.75999C20.8719 7.92799 19.6239 7.51199 18.0239 7.51199C16.4559 7.51199 15.2239 7.92799 14.3279 8.75999C13.4319 9.59199 12.8079 10.712 12.4559 12.12C12.1039 13.528 11.9279 15.112 11.9279 16.872C11.9279 18.632 12.1039 20.232 12.4559 21.672C12.8079 23.112 13.4319 24.264 14.3279 25.128C15.2239 25.96 16.4559 26.376 18.0239 26.376Z" fill="#FF6F00"/>
</g>
<defs>
<filter id="filter0_d_288_483" x="30.5806" y="0.311523" width="32.0481" height="41.0723" filterUnits="userSpaceOnUse" color-interpolation-filters="sRGB">
<feFlood flood-opacity="0" result="BackgroundImageFix"/>
<feColorMatrix in="SourceAlpha" type="matrix" values="0 0 0 0 0 0 0 0 0 0 0 0 0 0 0 0 0 0 127 0" result="hardAlpha"/>
<feOffset dy="4"/>
<feGaussianBlur stdDeviation="2"/>
<feComposite in2="hardAlpha" operator="out"/>
<feColorMatrix type="matrix" values="0 0 0 0 0 0 0 0 0 0 0 0 0 0 0 0 0 0 0.25 0"/>
<feBlend mode="normal" in2="BackgroundImageFix" result="effect1_dropShadow_288_483"/>
<feBlend mode="normal" in="SourceGraphic" in2="effect1_dropShadow_288_483" result="shape"/>
</filter>
<filter id="filter1_d_288_483" x="0.679932" y="0.791992" width="34.7839" height="40.2559" filterUnits="userSpaceOnUse" color-interpolation-filters="sRGB">
<feFlood flood-opacity="0" result="BackgroundImageFix"/>
<feColorMatrix in="SourceAlpha" type="matrix" values="0 0 0 0 0 0 0 0 0 0 0 0 0 0 0 0 0 0 127 0" result="hardAlpha"/>
<feOffset dy="4"/>
<feGaussianBlur stdDeviation="2"/>
<feComposite in2="hardAlpha" operator="out"/>
<feColorMatrix type="matrix" values="0 0 0 0 0 0 0 0 0 0 0 0 0 0 0 0 0 0 0.25 0"/>
<feBlend mode="normal" in2="BackgroundImageFix" result="effect1_dropShadow_288_483"/>
<feBlend mode="normal" in="SourceGraphic" in2="effect1_dropShadow_288_483" result="shape"/>
</filter>
</defs>
</svg>
