<svg width="18" height="18" viewBox="0 0 18 18" fill="none" xmlns="http://www.w3.org/2000/svg">
<mask id="mask0_142_150" style="mask-type:luminance" maskUnits="userSpaceOnUse" x="0" y="0" width="18" height="18">
<path d="M9.00001 17C10.0508 17.0013 11.0914 16.795 12.0622 16.3928C13.033 15.9907 13.9147 15.4007 14.6568 14.6568C15.4007 13.9147 15.9907 13.033 16.3928 12.0622C16.795 11.0914 17.0013 10.0508 17 9C17.0013 7.94924 16.795 6.90857 16.3928 5.9378C15.9907 4.96702 15.4007 4.08527 14.6568 3.3432C13.9147 2.59927 13.033 2.00929 12.0622 1.60717C11.0914 1.20505 10.0508 0.99871 9.00001 1.00001C7.94924 0.99871 6.90858 1.20505 5.9378 1.60717C4.96703 2.00929 4.08528 2.59927 3.34321 3.3432C2.59927 4.08527 2.00929 4.96702 1.60717 5.9378C1.20505 6.90857 0.99871 7.94924 1.00001 9C0.99871 10.0508 1.20505 11.0914 1.60717 12.0622C2.00929 13.033 2.59927 13.9147 3.34321 14.6568C4.08528 15.4007 4.96703 15.9907 5.9378 16.3928C6.90858 16.795 7.94924 17.0013 9.00001 17Z" fill="white"/>
<path fill-rule="evenodd" clip-rule="evenodd" d="M5.55511 0.683296C6.64722 0.230916 7.81792 -0.00128988 9.00001 5.38908e-06C10.1821 -0.00128988 11.3528 0.230916 12.4449 0.683296C13.5369 1.13564 14.5288 1.7992 15.3637 2.63588C16.2006 3.47085 16.8643 4.46291 17.3167 5.5551C17.7691 6.64721 18.0013 7.81792 18 9C18.0013 10.1821 17.7691 11.3528 17.3167 12.4449C16.8643 13.537 16.2007 14.529 15.3639 15.3639C14.529 16.2007 13.537 16.8643 12.4449 17.3167C11.3528 17.7691 10.1821 18.0013 9.00001 18C7.81792 18.0013 6.64722 17.7691 5.55511 17.3167C4.46302 16.8643 3.47104 16.2007 2.63613 15.3639C1.79933 14.529 1.13568 13.537 0.683297 12.4449C0.230916 11.3528 -0.00129 10.1821 5.39006e-06 9C-0.00129 7.81792 0.230916 6.64721 0.683297 5.5551C1.13567 4.463 1.79931 3.47102 2.6361 2.6361C3.47102 1.79931 4.46301 1.13567 5.55511 0.683296ZM5.39006e-06 9C5.8669e-06 8.99959 6.28413e-06 8.99918 6.82057e-06 8.99877L1.00001 9L6.82057e-06 9.00123C6.28413e-06 9.00082 5.8669e-06 9.00041 5.39006e-06 9ZM9.00001 18C8.9996 18 8.99918 18 8.99877 18L9.00001 17L9.00124 18C9.00083 18 9.00042 18 9.00001 18ZM18 9C18 9.00041 18 9.00082 18 9.00123L17 9L18 8.99877C18 8.99918 18 8.99959 18 9ZM9.00001 5.38908e-06C9.00042 5.86591e-06 9.00083 6.28315e-06 9.00124 6.81959e-06L9.00001 1.00001L8.99877 6.81959e-06C8.99918 6.28315e-06 8.9996 5.86591e-06 9.00001 5.38908e-06ZM8.99877 2.00001C8.07975 1.99887 7.16956 2.17934 6.3205 2.53105C5.47143 2.88275 4.70023 3.39876 4.0512 4.04942L4.04942 4.0512C3.39876 4.70023 2.88275 5.47143 2.53105 6.32049C2.17934 7.16956 1.99887 8.07974 2.00001 8.99877V9.00123C1.99887 9.92026 2.17934 10.8304 2.53105 11.6795C2.88275 12.5286 3.39876 13.2998 4.04942 13.9488L4.0512 13.9506C4.70023 14.6012 5.47143 15.1172 6.3205 15.469C7.16956 15.8207 8.07975 16.0011 8.99877 16H9.00124C9.92026 16.0011 10.8305 15.8207 11.6795 15.469C12.5286 15.1172 13.2998 14.6012 13.9488 13.9506L13.9506 13.9488C14.6013 13.2998 15.1173 12.5286 15.469 11.6795C15.8207 10.8304 16.0011 9.92026 16 9.00123V8.99877C16.0011 8.07974 15.8207 7.16956 15.469 6.32049C15.1173 5.47143 14.6013 4.70023 13.9506 4.0512L13.9488 4.04942C13.2998 3.39876 12.5286 2.88275 11.6795 2.53105C10.8305 2.17934 9.92026 1.99887 9.00124 2.00001H8.99877Z" fill="white"/>
<path fill-rule="evenodd" clip-rule="evenodd" d="M13.7072 5.89287C14.0977 6.28339 14.0977 6.91656 13.7072 7.30708L8.90716 12.1071C8.51663 12.4976 7.88347 12.4976 7.49294 12.1071L5.09294 9.70708C4.70242 9.31656 4.70242 8.68339 5.09294 8.29287C5.48347 7.90234 6.11663 7.90234 6.50716 8.29287L8.20005 9.98576L12.2929 5.89287C12.6835 5.50234 13.3166 5.50234 13.7072 5.89287Z" fill="black"/>
</mask>
<g mask="url(#mask0_142_150)">
<path d="M-0.599976 -0.599976H18.6V18.6H-0.599976V-0.599976Z" fill="#FF6F00"/>
</g>
</svg>
