<svg width="52" height="40" viewBox="0 0 52 40" fill="none" xmlns="http://www.w3.org/2000/svg">
<path d="M25.7143 4.49722e-06C15.9857 4.49722e-06 7.15714 3.74737 0.621429 9.83158C0.235714 10.2105 0 10.7368 0 11.3263C0 11.9158 0.235714 12.4421 0.621429 12.8211L5.93571 18.0421C6.33709 18.432 6.87763 18.6524 7.44207 18.6564C8.00651 18.6603 8.55018 18.4474 8.95714 18.0632C10.65 16.5053 12.5786 15.2 14.6571 14.1684C15.3643 13.8316 15.8571 13.1158 15.8571 12.2737V5.74737C18.9643 4.73685 22.2643 4.21053 25.7143 4.21053C29.1214 4.21053 32.4429 4.73685 35.55 5.72632V12.2526C35.55 13.0737 36.0429 13.8105 36.75 14.1474C38.85 15.179 40.7143 16.5053 42.4714 18.0421C42.8571 18.4211 43.3929 18.6316 43.9286 18.6316C44.5714 18.6316 45.1071 18.4 45.4929 18.0211L50.8071 12.8C51.1929 12.4211 51.4286 11.8947 51.4286 11.3053C51.4286 10.7158 51.1714 10.2105 50.7857 9.83158C44.0221 3.51538 35.0459 -0.00459261 25.7143 4.49722e-06ZM19.2857 8.42106V14.7368C19.2857 14.7368 6.42857 25.2632 6.42857 31.5789V40H45V31.5789C45 25.2632 32.1429 14.7368 32.1429 14.7368V8.42106H27.8571V12.6316H23.5714V8.42106H19.2857ZM25.7143 18.9474C27.9876 18.9474 30.1677 19.8346 31.7752 21.4138C33.3827 22.9931 34.2857 25.135 34.2857 27.3684C34.2857 29.6018 33.3827 31.7438 31.7752 33.323C30.1677 34.9023 27.9876 35.7895 25.7143 35.7895C23.441 35.7895 21.2608 34.9023 19.6534 33.323C18.0459 31.7438 17.1429 29.6018 17.1429 27.3684C17.1429 25.135 18.0459 22.9931 19.6534 21.4138C21.2608 19.8346 23.441 18.9474 25.7143 18.9474ZM25.7143 22.1053C24.2935 22.1053 22.9309 22.6598 21.9262 23.6468C20.9216 24.6338 20.3571 25.9725 20.3571 27.3684C20.3571 28.7643 20.9216 30.103 21.9262 31.09C22.9309 32.0771 24.2935 32.6316 25.7143 32.6316C27.1351 32.6316 28.4977 32.0771 29.5024 31.09C30.507 30.103 31.0714 28.7643 31.0714 27.3684C31.0714 25.9725 30.507 24.6338 29.5024 23.6468C28.4977 22.6598 27.1351 22.1053 25.7143 22.1053Z" fill="#2C2C2C"/>
</svg>
