<svg width="41" height="40" viewBox="0 0 41 40" fill="none" xmlns="http://www.w3.org/2000/svg">
<path d="M23.8891 12.5732H6.28662C5.95316 12.5732 5.63335 12.4408 5.39756 12.205C5.16176 11.9692 5.0293 11.6494 5.0293 11.3159V6.28662C5.0293 5.95316 5.16176 5.63335 5.39756 5.39756C5.63335 5.16176 5.95316 5.0293 6.28662 5.0293H23.8891C24.2226 5.0293 24.5424 5.16176 24.7782 5.39756C25.014 5.63335 25.1465 5.95316 25.1465 6.28662V11.3159C25.1465 11.6494 25.014 11.9692 24.7782 12.205C24.5424 12.4408 24.2226 12.5732 23.8891 12.5732ZM7.54394 10.0586H22.6318V7.4685H7.54394V10.0586Z" fill="#1E1E1E"/>
<path d="M23.8891 15.1885H6.28662C5.95316 15.1885 5.63335 15.3209 5.39756 15.5567C5.16176 15.7925 5.0293 16.1123 5.0293 16.4458V21.3745C5.0293 21.708 5.16176 22.0278 5.39756 22.2636C5.63335 22.4994 5.95316 22.6318 6.28662 22.6318H20.5698L25.1465 17.9797V16.4458C25.1465 16.1123 25.014 15.7925 24.7782 15.5567C24.5424 15.3209 24.2226 15.1885 23.8891 15.1885ZM22.6318 20.1172H7.54394V17.6025H22.6318V20.1172Z" fill="#1E1E1E"/>
<path d="M11.3913 37.1036V37.0281L11.7937 35.2805H2.51464V2.51464H27.6611V15.4022L30.1757 13.0259V1.25732C30.1757 0.92386 30.0433 0.604055 29.8075 0.368261C29.5717 0.132467 29.2519 0 28.9184 0H1.25732C0.92386 0 0.604055 0.132467 0.368261 0.368261C0.132467 0.604055 0 0.92386 0 1.25732V36.4624C0 36.7958 0.132467 37.1156 0.368261 37.3514C0.604055 37.5872 0.92386 37.7197 1.25732 37.7197H11.3159C11.3261 37.5128 11.3513 37.3068 11.3913 37.1036Z" fill="#1E1E1E"/>
<path d="M5.0293 31.3577C5.0293 31.6911 5.16176 32.0109 5.39756 32.2467C5.63335 32.4825 5.95316 32.615 6.28662 32.615H12.3721L12.7493 30.9805L12.9127 30.2889V30.2261H7.54394V27.6611H15.5154L18.03 25.1465H6.28662C5.95316 25.1465 5.63335 25.279 5.39756 25.5147C5.16176 25.7505 5.0293 26.0703 5.0293 26.4038V31.3577Z" fill="#1E1E1E"/>
<path d="M39.5934 18.4443L35.3562 14.2072C35.1682 14.0186 34.9448 13.869 34.6988 13.7669C34.4528 13.6648 34.1892 13.6123 33.9229 13.6123C33.6566 13.6123 33.3929 13.6648 33.1469 13.7669C32.901 13.869 32.6776 14.0186 32.4895 14.2072L15.2516 31.5456L13.8308 37.5934C13.7776 37.8543 13.7765 38.1231 13.8273 38.3845C13.8782 38.6458 13.9801 38.8946 14.1273 39.1165C14.2745 39.3384 14.464 39.5291 14.6849 39.6777C14.9059 39.8263 15.154 39.9298 15.4151 39.9823C15.5447 39.9949 15.6752 39.9949 15.8048 39.9823C15.959 40.0063 16.1159 40.0063 16.27 39.9823L22.3681 38.6369L39.5934 21.3739C39.7816 21.1869 39.9309 20.9646 40.0328 20.7197C40.1347 20.4748 40.1872 20.2121 40.1872 19.9468C40.1872 19.6816 40.1347 19.4189 40.0328 19.174C39.9309 18.9291 39.7816 18.7068 39.5934 18.5198V18.4443ZM21.0856 36.3486L16.4838 37.367L17.6028 32.803L30.5281 19.7394L34.0737 23.285L21.0856 36.3486ZM35.4945 21.8643L31.9489 18.3186L33.948 16.3446L37.5188 19.9154L35.4945 21.8643Z" fill="#1E1E1E"/>
</svg>
