<svg width="40" height="40" viewBox="0 0 40 40" fill="none" xmlns="http://www.w3.org/2000/svg">
<path d="M23.56 14.92C23.4602 14.92 23.3614 14.9397 23.2692 14.9779C23.177 15.016 23.0932 15.072 23.0226 15.1426C22.952 15.2132 22.896 15.297 22.8579 15.3892C22.8197 15.4814 22.8 15.5802 22.8 15.68V19.02L20 15.3C19.9302 15.1868 19.8334 15.0928 19.7181 15.0264C19.6029 14.9601 19.4729 14.9235 19.34 14.92C19.2402 14.92 19.1414 14.9397 19.0492 14.9779C18.957 15.016 18.8732 15.072 18.8026 15.1426C18.732 15.2132 18.676 15.297 18.6379 15.3892C18.5997 15.4814 18.58 15.5802 18.58 15.68V21.36C18.58 21.4598 18.5997 21.5586 18.6379 21.6508C18.676 21.743 18.732 21.8268 18.8026 21.8974C18.8732 21.968 18.957 22.024 19.0492 22.0621C19.1414 22.1003 19.2402 22.12 19.34 22.12C19.4398 22.12 19.5386 22.1003 19.6308 22.0621C19.723 22.024 19.8068 21.968 19.8774 21.8974C19.948 21.8268 20.004 21.743 20.0421 21.6508C20.0803 21.5586 20.1 21.4598 20.1 21.36V18L22.88 21.82C22.9508 21.9266 23.0571 22.0045 23.18 22.04C23.272 22.0621 23.368 22.0621 23.46 22.04C23.5477 22.0719 23.6412 22.0848 23.7343 22.0779C23.8274 22.071 23.9179 22.0445 24 22L24.2 21.86C24.3387 21.7141 24.4172 21.5213 24.42 21.32V15.68C24.4209 15.5712 24.3985 15.4635 24.3542 15.3641C24.3099 15.2647 24.2448 15.176 24.1633 15.1039C24.0818 15.0318 23.9857 14.9781 23.8816 14.9464C23.7775 14.9147 23.6679 14.9057 23.56 14.92ZM14.4 20.54H12.28V15.68C12.28 15.4784 12.1999 15.2851 12.0574 15.1426C11.9149 15.0001 11.7216 14.92 11.52 14.92C11.3184 14.92 11.1251 15.0001 10.9826 15.1426C10.8401 15.2851 10.76 15.4784 10.76 15.68V21.36C10.76 21.5616 10.8401 21.7549 10.9826 21.8974C11.1251 22.0399 11.3184 22.12 11.52 22.12H14.4C14.6034 22.1201 14.7989 22.0406 14.9446 21.8987C15.0903 21.7567 15.1748 21.5634 15.18 21.36C15.1854 21.2543 15.1693 21.1485 15.1325 21.0492C15.0958 20.9499 15.0392 20.8591 14.9662 20.7824C14.8932 20.7057 14.8054 20.6446 14.708 20.603C14.6107 20.5613 14.5059 20.5399 14.4 20.54ZM16.62 14.92C16.4166 14.9199 16.2211 14.9994 16.0754 15.1413C15.9297 15.2833 15.8452 15.4766 15.84 15.68V21.36C15.8452 21.5634 15.9297 21.7567 16.0754 21.8987C16.2211 22.0406 16.4166 22.1201 16.62 22.12C16.8216 22.12 17.0149 22.0399 17.1574 21.8974C17.2999 21.7549 17.38 21.5616 17.38 21.36V15.68C17.38 15.4784 17.2999 15.2851 17.1574 15.1426C17.0149 15.0001 16.8216 14.92 16.62 14.92ZM31.82 0H8.18C6.01215 0.00528102 3.9346 0.868796 2.4017 2.4017C0.868796 3.9346 0.00528102 6.01215 0 8.18V31.82C0.00528102 33.9878 0.868796 36.0654 2.4017 37.5983C3.9346 39.1312 6.01215 39.9947 8.18 40H31.82C33.9878 39.9947 36.0654 39.1312 37.5983 37.5983C39.1312 36.0654 39.9947 33.9878 40 31.82V8.18C39.9947 6.01215 39.1312 3.9346 37.5983 2.4017C36.0654 0.868796 33.9878 0.00528102 31.82 0ZM32.44 24.56C32.3595 24.6779 32.2727 24.7914 32.18 24.9C31.7031 25.4869 31.1669 26.0231 30.58 26.5C26.58 30.24 19.86 34.72 18.96 34.02C18.06 33.32 20.24 30.5 17.9 30.02C17.734 30.0409 17.566 30.0409 17.4 30.02C10.52 29.06 5.4 24.24 5.4 18.46C5.4 11.96 11.98 6.7 20.08 6.7C28.18 6.7 34.76 11.96 34.76 18.46C34.6906 20.6956 33.8737 22.8433 32.44 24.56ZM29.02 14.94H26C25.9002 14.94 25.8014 14.9597 25.7092 14.9979C25.617 15.036 25.5332 15.092 25.4626 15.1626C25.392 15.2332 25.336 15.317 25.2979 15.4092C25.2597 15.5014 25.24 15.6002 25.24 15.7V21.38C25.24 21.5816 25.3201 21.7749 25.4626 21.9174C25.6051 22.0599 25.7984 22.14 26 22.14H28.96C29.1616 22.14 29.3549 22.0599 29.4974 21.9174C29.6399 21.7749 29.72 21.5816 29.72 21.38C29.72 21.2802 29.7003 21.1814 29.6621 21.0892C29.624 20.997 29.568 20.9132 29.4974 20.8426C29.4268 20.772 29.343 20.716 29.2508 20.6779C29.1586 20.6397 29.0598 20.62 28.96 20.62H26.9V19.42H29.02C29.2234 19.4148 29.4167 19.3303 29.5587 19.1846C29.7006 19.0389 29.7801 18.8434 29.78 18.64C29.78 18.4384 29.6999 18.2451 29.5574 18.1026C29.4149 17.9601 29.2216 17.88 29.02 17.88H26.9V16.66H29.02C29.1198 16.66 29.2186 16.6403 29.3108 16.6021C29.403 16.564 29.4868 16.508 29.5574 16.4374C29.628 16.3668 29.684 16.283 29.7221 16.1908C29.7603 16.0986 29.78 15.9998 29.78 15.9C29.8114 15.785 29.8154 15.6643 29.7916 15.5475C29.7677 15.4308 29.7168 15.3212 29.6428 15.2278C29.5688 15.1343 29.4739 15.0596 29.3657 15.0096C29.2575 14.9596 29.1391 14.9358 29.02 14.94Z" fill="#1E1E1E"/>
</svg>
