<svg width="28" height="28" viewBox="0 0 28 28" fill="none" xmlns="http://www.w3.org/2000/svg">
<path fill-rule="evenodd" clip-rule="evenodd" d="M9.33333 3.11111C9.33333 2.28599 9.66111 1.49467 10.2446 0.911223C10.828 0.327777 11.6193 0 12.4444 0H15.5556C16.3807 0 17.172 0.327777 17.7554 0.911223C18.3389 1.49467 18.6667 2.28599 18.6667 3.11111V9.33333H24.8889C25.714 9.33333 26.5053 9.66111 27.0888 10.2446C27.6722 10.828 28 11.6193 28 12.4444V15.5556C28 16.3807 27.6722 17.172 27.0888 17.7554C26.5053 18.3389 25.714 18.6667 24.8889 18.6667H18.6667V24.8889C18.6667 25.714 18.3389 26.5053 17.7554 27.0888C17.172 27.6722 16.3807 28 15.5556 28H12.4444C11.6193 28 10.828 27.6722 10.2446 27.0888C9.66111 26.5053 9.33333 25.714 9.33333 24.8889V18.6667H3.11111C2.28599 18.6667 1.49467 18.3389 0.911223 17.7554C0.327777 17.172 0 16.3807 0 15.5556V12.4444C0 11.6193 0.327777 10.828 0.911223 10.2446C1.49467 9.66111 2.28599 9.33333 3.11111 9.33333H9.33333V3.11111Z" fill="#FF6F00"/>
</svg>
