<svg width="40" height="78" viewBox="0 0 40 78" fill="none" xmlns="http://www.w3.org/2000/svg">
<path d="M40 40.7587C37.2072 40.5593 35.63 42.4359 34.8513 43.8241C34.9203 43.0546 34.9678 42.2867 34.9678 41.5235C34.9678 40.7006 34.9494 39.8997 34.9218 39.1098C39.1002 40.4792 39.4528 34.2166 39.4528 34.2166C36.3351 34.4239 35.2422 36.4779 34.8575 37.8316C34.767 36.1638 34.6183 34.5668 34.4145 33.0435C39.1033 33.2964 38.4795 27.2379 38.4795 27.2379C35.469 27.7451 34.5294 30.2247 34.2351 31.7716C33.9822 30.1541 33.6726 28.6136 33.3109 27.1594C37.9614 26.2282 36.5941 20.5073 36.5941 20.5073C34.1033 20.7853 33.2986 24.3783 33.0503 26.1968C32.5981 24.5275 32.0861 22.9571 31.5205 21.5014C35.6392 18.9919 33.6128 14.2762 33.6128 14.2762C30.7725 15.3487 31.1159 19.5526 31.3335 21.0397C30.6376 19.3092 29.8758 17.7309 29.0742 16.2925C32.9966 13.1282 29.4773 8.8537 29.4773 8.8537C27.3896 9.94667 28.0258 13.491 28.5224 15.3283C27.5812 13.7469 26.6002 12.354 25.6208 11.126C29.1478 7.72461 24.7946 3.99343 24.7946 3.99343C23.0595 6.19508 24.0175 8.73749 24.8115 10.1445C23.8734 9.04999 22.9522 8.10777 22.0846 7.30689L22.1796 7.23465C22.0923 7.20639 22.0156 7.18911 21.9313 7.16242C21.8332 7.07291 21.7351 6.98497 21.6386 6.8986C23.8366 2.30215 19.3179 0 19.3179 0C18.2817 2.08701 19.1079 4.15204 20.0153 5.54966C19.2597 4.96548 18.5944 4.51008 18.0656 4.17402C17.9093 3.04493 17.0279 -0.25911 12.0187 0.312502C12.0187 0.312502 12.0923 4.83043 17.5184 4.58074C18.2572 5.0283 19.3302 5.74752 20.5886 6.79495C14.9724 5.47271 14.0865 8.04025 14.0865 8.04025C18.3814 10.468 20.8722 8.54591 21.66 7.73403C22.5797 8.57417 23.5576 9.56664 24.5524 10.7413C23.4779 10.4036 21.0699 9.93568 18.1622 11.2171C18.1622 11.2171 23.3768 14.9153 25.0184 11.3129C25.1456 11.4699 25.2728 11.6191 25.4001 11.7824C26.2477 12.8675 27.126 14.1427 27.9905 15.6015C27.0126 15.0692 24.8575 14.1804 22.1168 14.7677C22.1168 14.7677 25.9687 19.4191 28.363 16.2407C29.0558 17.4656 29.7302 18.8239 30.3663 20.3111C29.4175 19.5196 27.6717 18.5931 24.9755 19.1301C24.9755 19.1301 27.6288 23.7533 30.8676 21.5312C31.3872 22.8582 31.8654 24.2903 32.2977 25.8199C31.4163 24.9263 29.7088 23.6842 27.1659 23.9292C27.1659 23.9292 29.4666 28.9229 32.6104 26.949C32.9614 28.323 33.271 29.774 33.527 31.3083C32.7376 30.1117 31.2768 28.6277 28.8688 28.6654C28.8688 28.6654 30.1517 34.6516 33.7799 33.0388C33.9746 34.4804 34.1171 35.9943 34.2106 37.574C33.5668 36.3193 32.103 34.036 29.9034 33.901C29.9034 33.901 30.2039 39.5574 34.2658 38.4691C34.3102 39.4616 34.3394 40.4745 34.3394 41.5204C34.3394 42.2678 34.2918 43.0185 34.2244 43.7707C33.8013 42.4092 32.71 40.0222 30.1472 39.3218C30.1472 39.3218 29.8145 44.3957 34.1294 44.7145C33.924 46.3382 33.5607 47.9667 33.0579 49.5826C32.7023 47.9463 31.7321 45.0678 29.2351 44.4946C29.2351 44.4946 28.691 50.184 32.6901 50.6787C32.1613 52.18 31.5129 53.6671 30.7449 55.126C30.63 53.7456 29.885 50.7541 27.5322 49.8558C27.5322 49.8558 25.9243 55.0176 30.3863 55.7792C29.603 57.191 28.7155 58.5729 27.7223 59.9109C28.012 58.3531 27.8909 55.7211 25.4016 54.4664C25.4016 54.4664 23.176 58.9985 26.9145 60.9661C25.8906 62.2507 24.7655 63.4866 23.5576 64.6675C24.0451 63.094 24.6245 59.9752 22.1781 58.5164C22.1781 58.5164 19.1815 62.8851 22.8403 65.3694C22.3575 65.8185 21.8624 66.2598 21.3535 66.6901C20.5518 67.3685 19.7471 67.9888 18.9424 68.5651C19.5386 66.9571 20.2652 63.6687 18.5285 62.2538C18.5285 62.2538 14.8069 66.4169 18.0671 69.1744C16.6907 70.1025 15.325 70.894 13.9975 71.5645C14.5892 70.3773 15.2391 68.16 14.2719 65.6819C14.2719 65.6819 9.94788 69.377 12.9001 72.0984C11.1787 72.8977 9.54169 73.4992 8.04721 73.9546C9.02514 73.2055 10.7925 71.3447 9.89117 68.1128C9.89117 68.1128 4.55702 70.9992 7.30687 74.1729C3.20509 75.3302 0.370938 75.3601 0.315757 75.3601C0.141018 75.3601 0 75.5045 0 75.6836C0 75.8626 0.141018 76.0071 0.315757 76.0071C0.369405 76.0071 3.06867 75.9804 7.02023 74.9188C6.62324 78.595 13.0549 77.5868 13.0549 77.5868C11.7872 75.291 9.39148 74.7099 8.03495 74.6314C9.48038 74.1996 11.0668 73.6264 12.7299 72.8789C12.5107 75.8673 18.9546 74.5325 18.9546 74.5325C17.2869 72.3026 15.4077 72.0482 14.157 72.2036C15.374 71.5943 16.6217 70.8908 17.8817 70.0711C19.4451 74.0268 24.5509 70.5438 24.5509 70.5438C22.9629 68.4332 20.259 68.9593 18.8029 69.4524C19.7869 68.7708 20.7741 68.0186 21.7551 67.1879C22.2118 66.8 22.6548 66.4027 23.0901 66.0007C25.1563 69.5764 29.6597 65.9929 29.6597 65.9929C27.4387 64.1257 24.8988 64.8858 23.6864 65.4322C24.954 64.2168 26.1343 62.9417 27.2088 61.6131C29.8314 64.4853 33.8565 60.1982 33.8565 60.1982C31.1006 59.1115 28.8795 60.1448 27.7851 60.8703C28.9209 59.3958 29.9356 57.8678 30.8185 56.3006C33.9945 58.8697 36.8976 54.0283 36.8976 54.0283C34.0604 53.0892 32.1061 54.6172 31.2247 55.5578C31.9834 54.1335 32.6318 52.6825 33.1668 51.2142C37.7315 52.805 38.783 47.6086 38.783 47.6086C36.5895 46.803 34.6229 48.7079 33.5883 50.0097C34.0757 48.488 34.4283 46.9538 34.6597 45.4227C38.6389 46.8486 40 40.754 40 40.754V40.7587Z" fill="white"/>
</svg>
