<svg width="100" height="166" viewBox="0 0 100 166" fill="none" xmlns="http://www.w3.org/2000/svg">
<path d="M79.9713 74.9912C80.1465 75.6451 79.7592 76.3159 79.1053 76.4911C78.7605 76.5835 78.4766 76.5704 78.2566 76.5338C78.0753 76.7607 77.7882 76.997 77.3483 77.1148C77.3047 77.1265 77.2587 77.1452 77.2104 77.1709C77.0345 77.2754 76.8332 77.3803 76.4765 77.4758C75.9891 77.6064 75.6477 77.545 75.4514 77.502C75.1601 77.5801 74.996 77.5858 74.8351 77.6035C74.8053 77.6114 74.7784 77.6059 74.7427 77.6155C74.561 77.8171 74.2802 78.0771 73.7868 78.2093C73.3291 78.3319 73.0119 78.2895 72.8414 78.2715C72.3718 78.3973 71.9138 78.3289 71.4735 78.0646C70.8915 77.7235 70.6967 76.9729 71.0437 76.3894C71.3428 75.8887 71.9364 75.6787 72.4722 75.8473C72.7164 75.8074 72.9106 75.8191 73.0482 75.8332C73.2256 75.6391 73.5068 75.4045 73.9645 75.2818C74.2974 75.1926 74.4718 75.1777 74.6462 75.1629C74.7088 75.1588 74.7715 75.1548 74.8844 75.1245C75.3659 74.9955 75.7073 75.0569 75.9096 75.0983C75.9274 75.0935 75.9436 75.0828 75.9821 75.0598C76.1092 74.9875 76.2483 74.912 76.4516 74.8384C76.6292 74.5742 76.9309 74.2257 77.4957 74.0744C78.0128 73.9358 78.4011 74.0293 78.6188 74.1048C79.2205 74.02 79.8061 74.3983 79.9669 74.9987L79.9713 74.9912ZM64.4754 78.8884C64.5869 79.3045 64.4678 79.7633 64.1609 80.0686C64.0154 80.3815 63.7155 80.927 63.0022 81.1181C62.8476 81.1595 62.766 81.1878 62.6919 81.2204C62.5481 81.278 62.4102 81.3341 62.113 81.4137C61.5958 81.5523 61.1802 81.4279 60.8942 81.2879C60.7556 81.3888 60.5321 81.506 60.2289 81.5873C59.9793 81.6542 59.8544 81.6876 59.7324 81.7076C59.6551 81.7283 59.5837 81.7474 59.4692 81.7717C59.2934 81.9717 59.0067 82.2333 58.5074 82.3671C57.9605 82.5137 57.5357 82.379 57.2831 82.2683C57.2296 82.2826 57.1895 82.2997 57.1495 82.3168C57.016 82.3653 56.8824 82.4139 56.609 82.4871C56.3355 82.5604 56.1837 82.5883 56.0363 82.6087C55.9515 82.6251 55.8651 82.6355 55.6986 82.6801C55.2409 82.8027 54.8935 82.7429 54.6762 82.6928C54.5641 82.7738 54.4033 82.887 54.1557 82.9852C53.9796 83.2554 53.6811 83.6157 53.1045 83.7702C52.4625 83.9422 51.9762 83.6966 51.6738 83.4718C51.6175 83.4996 51.5553 83.5291 51.4797 83.5557C51.3088 83.8691 51.0068 84.2877 50.3886 84.4533C49.9784 84.5632 49.6989 84.5426 49.4701 84.521C49.3136 84.6267 49.0558 84.8296 48.5862 84.9554C48.0393 85.1019 47.6038 84.951 47.3222 84.8035C47.1522 84.9064 46.9537 84.9978 46.6803 85.0711C46.3177 85.1682 46.0203 85.1523 45.7971 85.1038C45.6126 85.3189 45.3314 85.5535 44.8974 85.6698C44.4932 85.7781 44.2153 85.7634 43.9865 85.7419C43.6683 85.8144 43.5224 85.8407 43.3825 85.8655C43.2918 85.8834 43.2053 85.8939 43.0329 85.94C42.9616 85.9592 42.9616 85.9592 42.8891 85.9977C42.7132 86.1022 42.506 86.2087 42.1553 86.3026C41.8343 86.3887 41.6226 86.4071 41.4407 86.4177C41.3527 86.4221 41.3273 86.4226 41.2203 86.4512C40.9349 86.5277 40.7891 86.554 40.6416 86.5744C40.6 86.5856 40.5568 86.5908 40.5017 86.5992C40.3236 86.838 40.0259 87.1536 39.4909 87.2969C38.837 87.4721 38.1661 87.0848 37.9909 86.4309C37.838 85.8602 38.1148 85.2764 38.6196 85.0201C38.7961 84.7752 39.0934 84.4344 39.6581 84.283C39.9435 84.2066 40.0893 84.1802 40.2368 84.1598C40.3216 84.1435 40.4139 84.1315 40.5863 84.0853C40.9073 83.9993 41.119 83.9808 41.301 83.9703C41.389 83.9658 41.4143 83.9654 41.5213 83.9367C41.5927 83.9176 41.5927 83.9176 41.6652 83.879C41.8411 83.7746 42.0423 83.6697 42.399 83.5741C42.6784 83.4992 42.8183 83.4745 42.9642 83.4482C43.0549 83.4302 43.1413 83.4198 43.3137 83.3736C43.6347 83.2876 43.875 83.2806 44.0752 83.2906C44.2576 83.0442 44.5498 82.7557 45.0492 82.6219C45.5485 82.4881 45.9007 82.5657 46.1378 82.6424C46.3446 82.5105 46.5621 82.3949 46.9069 82.3025C47.436 82.1607 47.8666 82.2938 48.1483 82.4414C48.3004 82.3433 48.5076 82.2368 48.8048 82.1571C49.1021 82.0775 49.3034 82.0681 49.4886 82.0695C49.6718 81.7783 49.9707 81.4433 50.5057 81.3C50.5532 81.2872 50.5992 81.2686 50.6436 81.2439C50.8195 81.1394 51.0207 81.0345 51.3715 80.9406C51.853 80.8115 52.2519 80.9213 52.547 81.0716C52.7177 80.9239 52.9483 80.7857 53.2455 80.706C53.3826 80.5992 53.636 80.4039 54.0938 80.2812C54.5872 80.149 54.9587 80.2279 55.1717 80.2855C55.3857 80.2281 55.5078 80.2082 55.6358 80.1866C55.7206 80.1702 55.807 80.1598 55.9735 80.1152C56.1518 80.0675 56.2394 80.0376 56.3269 80.0078C56.4605 79.9593 56.594 79.9107 56.8675 79.8375C57.2955 79.7228 57.6488 79.781 57.9069 79.8648C58.082 79.7095 58.3299 79.5412 58.6926 79.444C58.9422 79.3771 59.0671 79.3436 59.1892 79.3237C59.2902 79.2966 59.3929 79.2755 59.595 79.2213C59.6769 79.1229 59.9403 78.893 60.4396 78.7592C61.0341 78.6 61.4926 78.7893 61.7715 78.9503C61.7715 78.9503 61.7833 78.9471 61.7893 78.9455C61.865 78.9189 61.9391 78.8863 62.0326 78.8549C62.1513 78.6319 62.3202 78.3828 62.6245 78.1866C63.1869 77.8128 63.9495 77.9717 64.3232 78.5342C64.3982 78.6479 64.4495 78.7679 64.483 78.8928L64.4754 78.8884Z" fill="#FDFB54" fill-opacity="0.8"/>
<path d="M83.6354 103.955C83.6689 104.08 83.6861 104.216 83.672 104.353C83.6296 105.027 83.0471 105.54 82.3715 105.492L81.4584 105.437C80.9981 105.407 80.6665 105.216 80.4498 105.025C80.3963 105.04 80.3385 105.062 80.279 105.078C80.1126 105.122 79.9397 105.143 79.7546 105.142C79.6896 105.184 79.543 105.256 79.3588 105.305C79.1507 105.361 78.9331 105.381 78.7 105.367C78.1755 105.335 77.845 105.124 77.6545 104.984C77.415 104.947 77.2183 104.878 77.06 104.787C76.9068 104.904 76.713 105.014 76.4812 105.076C76.3029 105.123 76.1225 105.14 75.9401 105.125C75.4798 105.096 75.1525 104.897 74.9295 104.682C74.8554 104.715 74.7797 104.742 74.6965 104.764C74.5122 104.813 74.314 104.834 74.1182 104.817C73.9552 104.803 73.8672 104.808 73.7792 104.812C73.6345 104.819 73.4942 104.818 73.2087 104.799C72.859 104.778 72.6052 104.687 72.4231 104.602C72.2976 104.68 72.1391 104.755 71.9548 104.804C71.7705 104.853 71.5664 104.876 71.3646 104.86C71.0209 104.838 70.8499 104.794 70.6774 104.745C70.6219 104.728 70.568 104.717 70.4574 104.708C70.3019 104.699 70.2274 104.706 70.1513 104.707C70.0007 104.716 69.8441 104.726 69.5392 104.706C69.2014 104.682 69.0321 104.644 68.8671 104.599C68.8057 104.584 68.7442 104.568 68.6276 104.561C68.2451 104.537 67.9746 104.431 67.7893 104.334C67.6827 104.388 67.5524 104.448 67.4038 104.488C67.2076 104.541 66.9959 104.559 66.7822 104.546C66.0888 104.503 65.701 104.078 65.4945 103.783C65.025 103.647 64.6954 103.226 64.6536 102.689C64.6064 102.014 65.1639 101.431 65.8393 101.384C65.8825 101.379 65.9915 101.381 66.0363 101.382C66.5743 101.416 66.9338 101.664 67.1648 101.908C67.1945 101.9 67.2302 101.89 67.2659 101.881C67.468 101.827 67.6737 101.81 67.8874 101.823C68.3806 101.856 68.6865 102.023 68.8614 102.129C69.1544 102.152 69.3059 102.194 69.4617 102.229C69.5232 102.244 69.5847 102.26 69.7072 102.265C69.8566 102.276 69.9371 102.267 70.0132 102.266C70.1698 102.256 70.3204 102.247 70.6253 102.268C70.975 102.289 71.1475 102.338 71.3184 102.381C71.3184 102.381 71.3243 102.38 71.3303 102.378C71.4765 102.282 71.6583 102.176 71.8901 102.114C72.0744 102.064 72.2726 102.043 72.4744 102.059C72.9676 102.092 73.2719 102.253 73.4409 102.361C73.5709 102.37 73.6454 102.363 73.7216 102.362C73.8036 102.359 73.8857 102.356 74.0006 102.357C74.1626 102.225 74.3797 102.084 74.6769 102.004C74.8612 101.955 75.0534 101.935 75.2552 101.951C75.6438 101.974 75.9389 102.125 76.1524 102.303C76.2677 102.234 76.3996 102.179 76.5482 102.14C76.7266 102.092 76.9069 102.075 77.0953 102.089C77.6662 102.127 78.0201 102.402 78.2217 102.583C78.5167 102.638 78.7365 102.745 78.892 102.85C78.9602 102.819 79.0537 102.787 79.1607 102.759C79.3271 102.714 79.5 102.693 79.6851 102.694C79.7485 102.646 79.9053 102.565 80.1075 102.511C80.3096 102.457 80.5212 102.439 80.7468 102.448C81.3431 102.486 81.7126 102.795 81.9221 103.006L82.5513 103.048C83.0893 103.082 83.5227 103.463 83.6533 103.95L83.6354 103.955ZM74.2861 102.376C74.2861 102.376 74.2861 102.376 74.292 102.375C74.292 102.375 74.292 102.375 74.2861 102.376ZM57.973 102.154C58.0065 102.278 58.0237 102.414 58.0096 102.552C57.9672 103.226 57.3846 103.738 56.7107 103.696C56.3669 103.673 56.154 103.616 55.9723 103.556C55.8958 103.532 55.8883 103.528 55.8106 103.523C55.5192 103.506 55.3062 103.448 55.1365 103.385C54.9745 103.518 54.7677 103.65 54.4942 103.723C54.31 103.772 54.1237 103.79 53.9353 103.777C53.6693 103.759 53.5317 103.745 53.3985 103.723C53.3057 103.71 53.2129 103.697 53.0262 103.689C52.6107 103.66 52.3065 103.5 52.0838 103.311C52.0054 103.351 51.9269 103.391 51.8334 103.423C51.1907 103.64 50.4997 103.296 50.2785 102.661C50.1078 102.095 50.329 101.494 50.8258 101.208C51.0146 100.985 51.3037 100.685 51.7733 100.559C51.9457 100.513 52.1201 100.498 52.3009 100.507C53.0078 100.553 53.3988 100.99 53.6009 101.293C53.6414 101.301 53.6802 101.303 53.7207 101.311C53.7401 101.313 53.7536 101.315 53.773 101.317C53.9481 101.161 54.1782 100.998 54.4992 100.912C54.6775 100.864 54.8638 100.846 55.0522 100.859C55.4736 100.886 55.7306 100.99 55.9412 101.086C56.306 101.116 56.519 101.173 56.7006 101.233C56.7771 101.257 56.7847 101.261 56.8683 101.264C57.4063 101.299 57.8381 101.674 57.9703 102.167L57.973 102.154ZM54.0882 101.328C54.0882 101.328 54.0882 101.328 54.0942 101.326C54.0942 101.326 54.0941 101.326 54.0882 101.328ZM43.4719 101.108C43.5404 101.363 43.5272 101.647 43.4138 101.913C43.1608 102.491 42.5177 102.778 41.9339 102.597L41.7885 102.648C41.5448 102.714 41.3018 102.734 41.0298 102.718C40.3558 102.675 39.8429 102.093 39.8853 101.419C39.9278 100.745 40.5103 100.232 41.1843 100.274L41.3685 100.225C41.6107 100.154 41.8477 100.135 42.1256 100.15C42.3722 100.166 42.5836 100.218 42.7791 100.306C43.1326 100.46 43.3795 100.763 43.4735 101.114L43.4719 101.108Z" fill="#FDFB54" fill-opacity="0.8"/>
<path d="M79.4554 132.178C79.5207 132.422 79.5103 132.692 79.4072 132.949C79.155 133.577 78.4465 133.882 77.8183 133.63C77.5117 133.508 77.3367 133.402 77.1872 133.296C77.1177 133.25 77.0951 133.237 77.0019 133.199C76.823 133.126 76.733 133.099 76.6414 133.066C76.5153 133.023 76.3892 132.981 76.1397 132.882C75.6257 132.675 75.3676 132.33 75.2353 132.098C75.1932 132.084 75.1528 132.076 75.1183 132.066C75.0223 132.041 74.9248 132.009 74.7927 131.968C74.7511 131.98 74.7095 131.991 74.6738 132C74.2874 132.104 73.9048 132.079 73.5395 131.928C73.4673 131.897 73.4555 131.9 73.3746 131.883C73.1831 131.858 72.9689 131.82 72.6473 131.689C72.1769 131.503 71.9236 131.176 71.7769 130.891C71.568 130.896 71.3167 130.861 71.037 130.745C70.6658 130.596 70.4217 130.374 70.2736 130.178C69.9533 130.22 69.6437 130.181 69.3371 130.06C68.8651 129.868 68.625 129.613 68.4987 129.475C68.2449 129.384 68.1001 129.295 67.9537 129.201C67.901 129.17 67.8466 129.134 67.7399 129.092C67.6467 129.054 67.6273 129.052 67.5404 129.038C67.3592 129.003 67.157 128.962 66.8445 128.842C66.7076 128.783 66.6343 128.771 66.5593 128.752C66.4094 128.716 66.2579 128.674 65.9664 128.561C65.6598 128.439 65.515 128.351 65.3778 128.266C65.3199 128.288 65.2621 128.31 65.2026 128.326C64.834 128.425 64.4649 128.403 64.1088 128.262L63.2477 127.926C62.648 127.685 62.3969 127.224 62.2768 126.918C62.2257 126.894 62.1836 126.879 62.14 126.859C61.5145 126.594 61.1751 125.85 61.4364 125.232C61.7036 124.612 62.3641 124.295 62.9896 124.561L63.5143 124.783C64.1065 125.02 64.3635 125.48 64.4836 125.785L64.7541 125.891C64.8223 125.86 64.8995 125.839 64.9709 125.82C65.3394 125.722 65.7085 125.744 66.0663 125.89C66.3804 126.016 66.5252 126.105 66.67 126.193C66.7244 126.23 66.7771 126.26 66.8914 126.306C67.0342 126.363 67.1032 126.383 67.1781 126.401C67.328 126.438 67.4795 126.48 67.771 126.593C67.8642 126.632 67.8836 126.633 67.9705 126.648C68.1517 126.682 68.3539 126.723 68.6664 126.844C68.9806 126.97 69.127 127.064 69.2718 127.153C69.3245 127.183 69.3789 127.22 69.4856 127.261C69.8283 127.399 70.0477 127.576 70.1918 127.709C70.5548 127.637 70.9017 127.672 71.2504 127.808C71.6501 127.968 71.8931 128.209 72.0503 128.415C72.2873 128.396 72.5847 128.412 72.9393 128.547C73.5029 128.772 73.7563 129.194 73.8839 129.504C73.9842 129.522 74.0996 129.548 74.2317 129.589C74.2733 129.578 74.3209 129.565 74.3625 129.554C74.7429 129.452 75.1196 129.479 75.4892 129.622C75.6455 129.682 75.728 129.704 75.8045 129.729C75.9485 129.766 76.088 129.812 76.3645 129.916C76.8785 130.122 77.1366 130.467 77.2748 130.698C77.3379 130.719 77.3875 130.738 77.4354 130.751C77.5616 130.793 77.6877 130.836 77.9372 130.935C78.2437 131.056 78.4187 131.162 78.5683 131.269C78.6377 131.314 78.6603 131.327 78.7535 131.366C79.1248 131.515 79.3868 131.827 79.484 132.19L79.4554 132.178ZM70.5098 130.109C70.574 130.111 70.6291 130.102 70.6648 130.093L70.1992 128.949L70.5082 130.103L70.5098 130.109ZM69.8838 127.772L70.3494 128.916L70.042 127.768C69.9702 127.762 69.9151 127.77 69.8854 127.778L69.8838 127.772ZM64.996 125.986L65.002 125.984C65.002 125.984 65.002 125.984 64.996 125.986ZM55.2593 122.319C55.3994 122.842 55.1793 123.423 54.6869 123.702C54.1013 124.037 53.3546 123.842 53.0134 123.258C52.9904 123.22 52.9657 123.175 52.9486 123.135C52.9352 123.133 52.9141 123.126 52.9006 123.123C52.7567 123.085 52.6112 123.041 52.3331 122.931C52.2189 122.885 52.1574 122.87 52.0916 122.862C51.9239 122.83 51.7546 122.793 51.4464 122.665C51.1323 122.539 50.9799 122.446 50.8351 122.357C50.7823 122.327 50.728 122.291 50.6138 122.245C50.5281 122.21 50.5146 122.208 50.4353 122.197C50.2497 122.17 50.0356 122.132 49.7199 122C49.4701 121.971 49.2473 121.948 48.9665 121.851C48.7018 121.91 48.3129 121.956 47.8275 121.762C47.4277 121.601 47.2126 121.417 47.0411 121.252C46.7254 121.12 46.5806 121.032 46.4374 120.949C46.383 120.913 46.3227 120.878 46.2026 120.834C45.8734 120.699 45.6694 120.556 45.5119 120.42C45.1267 120.504 44.7619 120.474 44.3982 120.329C43.8481 120.107 43.5907 119.718 43.4624 119.452C43.3676 119.408 43.2954 119.376 43.2232 119.345C43.1359 119.304 43.0487 119.264 42.8698 119.191L42.3121 118.964C42.2337 119.004 42.1283 119.039 42.0153 119.069C41.6646 119.163 41.2955 119.141 40.9469 119.005C40.6898 118.902 40.5665 118.846 40.4431 118.79C40.3559 118.749 40.2611 118.705 40.0822 118.632C39.6328 118.452 39.3835 118.188 39.2418 118.016C38.9575 117.977 38.718 117.939 38.3964 117.809C37.7681 117.557 37.4636 116.848 37.7142 116.214C37.9664 115.586 38.6748 115.281 39.3031 115.534C39.6203 115.576 39.8716 115.611 40.2278 115.751C40.7057 115.941 40.9538 116.225 41.088 116.393C41.2729 116.465 41.3752 116.514 41.4775 116.563C41.5001 116.576 41.5287 116.587 41.5513 116.6C41.6313 116.566 41.7292 116.527 41.8422 116.497C42.1988 116.401 42.5679 116.424 42.9106 116.561L43.7689 116.911C44.0184 117.01 44.1418 117.066 44.2592 117.124C44.3464 117.164 44.4337 117.204 44.6201 117.282C45.0274 117.447 45.2735 117.699 45.4296 117.925C45.7277 117.896 46.0179 117.933 46.311 118.052C46.7033 118.208 46.9168 118.387 47.0866 118.545C47.4174 118.686 47.5607 118.768 47.7055 118.857C47.7598 118.893 47.8201 118.928 47.9403 118.973C48.2905 119.114 48.4976 119.269 48.6583 119.417C48.9187 119.367 49.2783 119.353 49.7201 119.528C50.0163 119.563 50.272 119.59 50.6282 119.731C50.7139 119.765 50.7274 119.768 50.8142 119.783C50.9998 119.809 51.2139 119.848 51.5296 119.98C51.8437 120.106 51.9885 120.194 52.1349 120.289C52.1877 120.319 52.242 120.356 52.3563 120.402C52.4705 120.447 52.5304 120.457 52.5918 120.472C52.7596 120.504 52.9289 120.541 53.243 120.667C53.3933 120.729 53.4683 120.747 53.5508 120.77C53.6947 120.808 53.8403 120.851 54.1183 120.962C54.8171 121.239 55.0477 121.815 55.138 122.033C55.1948 122.126 55.2354 122.23 55.2624 122.331L55.2593 122.319Z" fill="#FDFB54" fill-opacity="0.8"/>
<path d="M68.1766 156.997C68.2754 157.366 68.2045 157.767 67.9456 158.085C67.5537 158.572 66.8569 158.682 66.3408 158.349C66.0894 158.315 65.7135 158.243 65.3139 157.917C64.925 157.607 64.7764 157.29 64.6925 157.096C64.6215 157.045 64.5762 157.019 64.531 156.993C64.3878 156.91 64.2446 156.827 63.9859 156.623C63.7089 156.397 63.5672 156.225 63.448 156.066C62.9551 155.605 62.9026 154.791 63.369 154.297C63.837 153.808 64.5795 153.749 65.0724 154.21C65.2331 154.358 65.3232 154.48 65.4118 154.597C65.4606 154.66 65.4606 154.66 65.5182 154.708C65.6241 154.795 65.6844 154.83 65.7447 154.864C65.8879 154.947 66.0311 155.03 66.2899 155.234C66.6137 155.492 66.7733 155.755 66.8632 155.947C67.1042 155.991 67.4298 156.089 67.7628 156.356C67.9731 156.523 68.1097 156.747 68.175 156.991L68.1766 156.997ZM58.1354 149.436C58.1577 149.519 58.1698 149.612 58.1758 149.706C58.196 150.375 57.7083 150.933 57.0415 150.965C56.8342 150.976 56.2868 151.002 55.7495 150.566L55.0261 149.982C54.7265 149.744 54.5752 149.536 54.4664 149.368L53.6759 148.7C53.5957 148.639 53.5791 148.624 53.4994 148.588C53.3308 148.506 53.1499 148.402 52.8836 148.193C52.648 148.122 52.3791 148.022 52.0387 147.75C51.624 147.415 51.4761 147.054 51.4037 146.831C51.1687 146.62 51.0448 146.443 50.9392 146.286C50.7467 146.115 50.6757 146.064 50.6003 146.02C50.5158 145.966 50.4238 145.908 50.3028 145.813C50.0146 145.808 49.5852 145.751 49.1613 145.406C48.9419 145.229 48.8387 145.129 48.7355 145.029C48.6673 144.964 48.6065 144.904 48.4613 144.79C48.0391 144.451 47.8924 144.07 47.8243 143.84L47.2295 143.356C47.0993 143.25 47.0052 143.161 46.9322 143.078C46.4729 142.577 46.5077 141.803 47.0031 141.345C47.4984 140.888 48.2783 140.921 48.73 141.418L49.4808 142.032C49.903 142.372 50.0557 142.751 50.1254 142.987C50.2646 143.103 50.342 143.178 50.421 143.259C50.4559 143.294 50.4893 143.323 50.5393 143.367C50.8275 143.373 51.2466 143.439 51.6672 143.772C51.8049 143.882 51.8743 143.927 51.9513 143.976C52.0751 144.058 52.1989 144.139 52.4258 144.321C52.7346 144.569 52.8799 144.779 52.9979 144.957C53.4173 145.31 53.5842 145.648 53.6642 145.875C53.8803 145.944 54.1255 146.051 54.4191 146.29C54.4993 146.352 54.5219 146.365 54.5956 146.402C54.7642 146.485 54.9451 146.589 55.2038 146.794L55.9229 147.385C56.2225 147.623 56.3738 147.831 56.4885 147.998L57.1381 148.544C57.6144 148.633 58.0085 148.986 58.1311 149.444L58.1354 149.436ZM41.7915 136.02C41.8903 136.389 41.8194 136.79 41.5605 137.108C41.135 137.636 40.366 137.715 39.8379 137.289L39.3006 136.853C38.9918 136.605 38.839 136.391 38.7269 136.21C38.5253 136.029 38.4468 135.973 38.3666 135.912C38.2563 135.833 38.1401 135.756 37.9282 135.583L37.2075 134.987C36.681 134.567 36.5373 133.745 36.9628 133.217C37.3883 132.689 38.0998 132.562 38.6264 132.982C38.6264 132.982 38.7414 133.078 38.7474 133.077L39.468 133.674C39.6148 133.794 39.6934 133.849 39.7779 133.903C39.8882 133.982 40.0045 134.059 40.2164 134.231C40.5251 134.48 40.678 134.694 40.7959 134.872L41.388 135.37C41.5983 135.537 41.7349 135.761 41.8002 136.005L41.7915 136.02Z" fill="#FDFB54" fill-opacity="0.8"/>
<path d="M68.7905 48.2197C68.9227 48.7131 68.7362 49.2536 68.2874 49.5523C68.0985 49.6794 67.9 49.7708 67.6979 49.8249C67.6325 49.8425 67.5671 49.86 67.5045 49.864C67.397 50.1286 67.2126 50.4392 66.839 50.6858C66.78 50.7271 66.7741 50.7287 66.7258 50.7863C66.594 50.9363 66.4399 51.0986 66.1417 51.2932C65.9365 51.431 65.7261 51.5256 65.5061 51.5846C65.3872 51.6164 65.2771 51.6332 65.1669 51.65C64.9649 51.7997 64.8107 51.8665 64.6507 51.9348C64.6209 51.9428 64.5944 51.9627 64.5603 51.9782C64.454 52.2233 64.2684 52.5533 63.8521 52.8305C63.6248 52.9807 63.4041 53.0844 63.1603 53.1497C63.1366 53.1561 63.0117 53.1895 62.9923 53.1884C62.8299 53.2956 62.6536 53.3747 62.4752 53.4225C62.3563 53.4543 62.2402 53.4727 62.1328 53.476C62.0269 53.7465 61.8437 54.0377 61.5026 54.2629C61.2709 54.4205 61.0486 54.5183 60.7989 54.5852C60.7811 54.59 60.68 54.6171 60.6622 54.6219C60.5529 54.6894 60.5133 54.7319 60.4721 54.7684C60.3458 54.8914 60.2195 55.0145 59.9331 55.2059C59.716 55.3469 59.5012 55.449 59.2754 55.5096C59.2219 55.5239 59.1743 55.5366 59.1251 55.5434C59.0124 55.7648 58.826 56.0441 58.4525 56.2907C58.2577 56.5149 58.0922 56.7058 57.7674 56.9203C57.5931 57.0307 57.4243 57.1141 57.2401 57.1635C56.9428 57.2432 56.6843 57.2296 56.4972 57.1969C56.3684 57.2633 56.229 57.3134 56.0922 57.35C55.9912 57.3771 55.9063 57.3935 55.814 57.4055C55.7993 57.4221 55.7993 57.4221 55.7467 57.4872C55.6632 57.5797 55.5737 57.6737 55.4442 57.7849C55.3827 58.1263 55.2192 58.6097 54.7054 58.9513C54.5696 59.0387 54.5078 59.0935 54.446 59.1482L53.5819 58.2775L52.8105 57.3246C52.9048 57.2484 52.9828 57.1829 53.0668 57.1158C53.1282 56.7744 53.2933 56.2969 53.8071 55.9553C53.8661 55.914 53.8721 55.9125 53.9263 55.8533C54.0581 55.7033 54.2137 55.5469 54.5104 55.3464C54.7335 55.2038 54.9423 55.1032 55.1622 55.0443C55.2633 55.0172 55.354 54.9993 55.4404 54.9889C55.5628 54.8987 55.7391 54.8196 55.9175 54.7718C56.1672 54.7049 56.3836 54.7043 56.5541 54.7223C56.6772 54.5874 56.8019 54.4584 56.9893 54.3254C57.0945 54.0997 57.2816 53.7756 57.6995 53.5043C57.9209 53.3558 58.1313 53.2612 58.3572 53.2006C58.4464 53.1767 58.5312 53.1604 58.622 53.1424C58.675 53.1027 58.7146 53.0603 58.7558 53.0237C58.8821 52.9007 59.0085 52.7777 59.2949 52.5862C59.4957 52.456 59.6867 52.3602 59.8915 52.2926C59.9664 51.9539 60.1416 51.5375 60.6022 51.2356C60.7647 51.1284 60.935 51.0509 61.1193 51.0015C61.4463 50.9139 61.7274 50.9405 61.9296 50.9819C62.0643 50.9139 62.1978 50.8654 62.3405 50.8272C62.3524 50.824 62.3821 50.816 62.4178 50.8065C62.5273 50.5733 62.7133 50.2686 63.1015 50.0053C63.3879 49.8138 63.542 49.7471 63.7021 49.6787C63.7599 49.6568 63.8162 49.629 63.9196 49.5631C64.1248 49.4253 64.3351 49.3307 64.5492 49.2733C64.668 49.2415 64.7782 49.2247 64.8884 49.2079C64.869 49.2067 64.869 49.2067 64.9216 49.1416C65.0198 49.0325 65.124 48.9218 65.2875 48.7951C65.3736 48.4981 65.5487 48.0816 66.0257 47.7691C66.2087 47.6436 66.4071 47.5522 66.6152 47.4964C66.8054 47.4454 66.962 47.4353 67.0813 47.4289C67.6261 47.1555 68.3006 47.3188 68.6497 47.8369C68.7248 47.9506 68.7836 48.075 68.817 48.1998L68.7905 48.2197ZM47.0099 62.9502C47.0673 63.1642 47.0668 63.4001 46.9945 63.6297C46.8713 64.0259 46.6318 64.3449 46.2864 64.5776C46.1359 64.6817 45.9699 64.7516 45.8034 64.7962C45.4349 64.895 45.1101 64.8482 44.8654 64.7672C44.8199 64.8113 44.764 64.8645 44.7066 64.9117C44.6452 65.2531 44.4816 65.7366 43.9619 66.0797C43.7302 66.2374 43.5079 66.3352 43.2464 66.4052L43.0918 66.4467C43.0091 66.5899 42.8315 66.8541 42.4357 67.1131C42.2852 67.2171 42.1089 67.2962 41.9246 67.3456C41.6512 67.4189 41.4077 67.414 41.2146 67.3829C41.0888 67.5313 40.9375 67.6802 40.6982 67.8335C40.5093 67.9606 40.3151 68.0444 40.119 68.097C40.0357 68.1193 39.9569 68.1341 39.8823 68.1413C39.7732 68.3999 39.5873 68.7046 39.2197 68.9496C38.9111 69.1534 38.6722 69.2365 38.4938 69.2843L38.3571 69.3209C38.1254 69.4786 37.9982 69.5509 37.8754 69.6156C37.7969 69.6558 37.7141 69.7034 37.568 69.8C37.503 69.8428 37.503 69.8428 37.4488 69.902C37.3169 70.052 37.1629 70.2143 36.8646 70.4089C36.5664 70.6035 36.4063 70.6719 36.2403 70.7419C36.1884 70.7622 36.1364 70.7824 36.0449 70.8452C35.8073 71.0044 35.6785 71.0708 35.5514 71.1431C35.5129 71.1661 35.4729 71.1832 35.4242 71.2154C35.3317 71.4887 35.1471 71.8695 34.6939 72.1756L33.9251 72.7066C33.3626 73.0803 32.6032 72.9334 32.2295 72.3709C31.8558 71.8084 32.0028 71.049 32.5653 70.6753L33.157 70.2683C33.2495 69.995 33.431 69.6023 33.8917 69.3005C34.1353 69.1396 34.2624 69.0673 34.3912 69.001C34.4696 68.9609 34.5465 68.9148 34.6927 68.8183C34.985 68.6252 35.151 68.5553 35.3171 68.4853C35.369 68.465 35.4209 68.4447 35.5124 68.382C35.5714 68.3407 35.5773 68.3391 35.6256 68.2816C35.7575 68.1316 35.9115 67.9692 36.2157 67.773C36.4474 67.6154 36.5702 67.5506 36.6974 67.4783C36.7759 67.4382 36.8586 67.3905 37.0048 67.294C37.2365 67.1363 37.4588 67.0385 37.695 66.9689C37.7918 66.6881 37.9753 66.3267 38.4035 66.0463C38.5941 65.9252 38.7866 65.8354 38.9828 65.7828C39.1552 65.7366 39.3042 65.7222 39.4176 65.7173C39.5712 65.5296 39.7339 65.3522 40.0263 65.1592C40.2006 65.0487 40.3709 64.9712 40.5374 64.9266C40.7989 64.8565 41.0364 64.863 41.2279 64.8881C41.3376 64.7504 41.5035 64.5849 41.7514 64.4166C41.9447 64.2819 42.1476 64.183 42.3659 64.1181C42.4456 63.7973 42.6239 63.3927 43.0771 63.0865C43.142 63.0436 43.142 63.0436 43.1963 62.9845C43.3281 62.8345 43.4837 62.6781 43.7804 62.4776C43.9088 62.3858 44.0791 62.3083 44.2634 62.2589C44.6023 62.1681 44.8984 62.2035 45.1383 62.2666C45.4394 62.0585 45.8322 61.9788 46.2089 62.1008C46.6261 62.2311 46.9242 62.559 47.0294 62.9514L47.0099 62.9502ZM45.1284 64.512C45.1284 64.512 45.1505 64.4997 45.1608 64.4906C45.1489 64.4938 45.1387 64.5029 45.1284 64.512ZM33.321 70.167L33.3329 70.1638C33.3329 70.1638 33.327 70.1654 33.321 70.167Z" fill="#FDFB54" fill-opacity="0.8"/>
<path d="M51.0962 25.794C51.1933 26.1566 51.1208 26.5519 50.8754 26.8726C50.6474 27.163 50.4098 27.3223 50.2263 27.4224C50.2025 27.69 50.1173 28.0378 49.841 28.3858C49.778 28.46 49.7753 28.4735 49.7393 28.5532C49.657 28.7218 49.5601 28.907 49.3511 29.1733C49.0471 29.5606 48.7571 29.7147 48.6002 29.795C48.0973 30.2483 47.3321 30.1985 46.8788 29.6956C46.4255 29.1926 46.4705 28.4096 46.9735 27.9563C47.1691 27.7828 47.3406 27.6859 47.4472 27.6319C47.4852 27.5834 47.4939 27.5684 47.5255 27.4962C47.586 27.3653 47.6628 27.2237 47.7866 27.0439C47.7938 26.7617 47.8465 26.3398 48.1857 25.9176C48.5 25.5212 48.8272 25.3634 49.0155 25.2811C49.445 24.8156 50.168 24.7557 50.6748 25.1487C50.8926 25.3197 51.0308 25.5503 51.0962 25.794ZM43.3836 36.0542C43.468 36.3692 43.4216 36.7193 43.2071 37.0126C43.194 37.0352 43.1093 37.1471 43.0888 37.1653C42.8505 37.4649 42.5256 37.6794 42.1392 37.7829C42.1274 37.7861 42.0976 37.7941 42.0679 37.802C41.8597 38.0235 41.6735 38.1371 41.5079 38.2324C41.439 38.3082 41.4319 38.3292 41.3943 38.403C41.3425 38.5188 41.2729 38.6394 41.1739 38.7934C41.1957 39.1125 41.1677 39.5787 40.8068 40.0386C40.6971 40.1763 40.652 40.2457 40.6085 40.3211C40.5329 40.4433 40.4514 40.5671 40.2701 40.7941C40.0215 41.1028 39.7129 41.3065 39.3384 41.4069C39.3206 41.4117 39.3028 41.4164 39.2909 41.4196C39.234 41.5878 39.1288 41.8135 38.9257 42.0781C38.7738 42.2718 38.6962 42.3626 38.6142 42.4611C38.5556 42.5277 38.4986 42.6003 38.402 42.7154C38.3643 42.9549 38.279 43.3027 37.9794 43.6824C37.6418 44.1106 37.2562 44.2649 37.0319 44.3313C36.9809 44.4024 36.9429 44.4508 36.9124 44.5035C36.8336 44.6138 36.7608 44.7225 36.5958 44.9388C36.4188 45.1582 36.325 45.2598 36.2328 45.3674C36.1682 45.4356 36.1096 45.5023 35.994 45.6416C35.7237 45.988 35.4488 46.1509 35.2237 46.2621C34.6152 46.559 33.8838 46.3026 33.5886 45.7C33.2901 45.0855 33.5481 44.3601 34.1507 44.0648C34.2437 43.9125 34.3375 43.8109 34.4314 43.7093C34.4959 43.641 34.5545 43.5743 34.6701 43.4351C34.7841 43.2898 34.8395 43.2113 34.8949 43.1327C34.9737 43.0224 35.0508 42.9062 35.2175 42.6959C35.4922 42.3419 35.8044 42.1754 36.0298 42.0895C36.0783 41.8663 36.1826 41.5898 36.4209 41.2903C36.5773 41.0891 36.6549 40.9982 36.7368 40.8998L37.0001 40.5744C37.0605 40.348 37.1529 40.0747 37.4248 39.7342C37.6718 39.4196 37.9863 39.2142 38.3549 39.1155C38.4025 39.1027 38.45 39.09 38.4992 39.0832C38.5182 39.059 38.5296 39.0304 38.5486 39.0062C38.5981 38.9293 38.6416 38.8539 38.7176 38.7571C38.6942 38.432 38.7254 37.9777 39.0923 37.5162C39.1493 37.4436 39.1565 37.4226 39.194 37.3488C39.2763 37.1802 39.3732 36.9949 39.5822 36.7287C39.8482 36.3898 40.0874 36.2365 40.2915 36.1181C40.5503 35.8003 40.8736 35.5799 41.2659 35.4747C41.2778 35.4715 41.3194 35.4604 41.361 35.4492C41.7923 35.0852 42.4495 35.0174 42.9122 35.3649C43.151 35.543 43.3119 35.7867 43.382 36.0482L43.3836 36.0542ZM30.3215 51.9592C30.4553 52.4585 30.2542 53.0158 29.807 53.3204C29.7317 53.3724 29.6592 53.4109 29.597 53.4403C29.5672 53.7096 29.4804 54.0514 29.2085 54.3918C28.9702 54.6914 28.7698 54.8471 28.5971 54.9634C28.3496 55.2527 28.2558 55.3543 28.162 55.4559C28.0974 55.5242 28.0389 55.5909 27.9249 55.7361L25.9786 54.2506C26.1729 54.001 26.2668 53.8994 26.3606 53.7978C26.4251 53.7296 26.4837 53.6629 26.6037 53.5161C26.8214 53.2347 27.0115 53.0882 27.1782 52.9735C27.193 52.6955 27.267 52.3062 27.577 51.9173C27.9336 51.4649 28.3164 51.3241 28.5003 51.2494C29.0627 50.8757 29.8074 51.0393 30.1812 51.6018C30.2546 51.7095 30.3059 51.8296 30.3394 51.9544L30.3215 51.9592Z" fill="#FDFB54" fill-opacity="0.8"/>
<path d="M28.44 9.67274C28.5053 9.91647 28.4933 10.1809 28.3945 10.4304C28.2629 10.7715 28.0816 10.9984 27.9304 11.1473C28.0065 11.5028 27.9812 11.86 27.8452 12.2086C27.8152 12.2868 27.8124 12.3003 27.8034 12.3855C27.7767 12.5711 27.7385 12.7852 27.614 13.1053C27.4381 13.5665 27.1958 13.8035 27.0651 13.9341C26.9651 14.203 26.8765 14.3478 26.7954 14.4969C26.7737 14.5346 26.746 14.5739 26.7246 14.6369C26.7646 14.8811 26.7932 15.2493 26.6173 15.7106C26.4699 16.0878 26.3048 16.304 26.1643 16.4691C26.0109 16.8479 25.7972 17.0963 25.5924 17.2595C25.6713 17.6015 25.6503 17.9512 25.5215 18.2788C25.3784 18.6485 25.2177 18.8572 25.0787 19.0282C24.9937 19.2103 24.9843 19.2701 24.9689 19.3316C24.9374 19.4993 24.8999 19.6687 24.7798 19.9812C24.6324 20.3584 24.4614 20.5762 24.3089 20.7445C24.3338 20.9799 24.341 21.3157 24.1809 21.7409C24.1656 21.7789 24.1559 21.8219 24.1517 21.8698C24.1314 22.0791 24.1039 22.3094 23.9679 22.6581C23.7561 23.1991 23.3873 23.4635 23.1492 23.5974C23.0005 23.8985 22.8303 24.0715 22.7364 24.1731C22.7021 24.2588 22.6993 24.2723 22.6843 24.3591C22.667 24.4848 22.6411 24.6256 22.5917 24.7981C22.769 25.222 22.7858 25.689 22.6155 26.1233C22.5554 26.2796 22.5329 26.3621 22.5104 26.4446L22.4638 26.6036C22.2672 27.2488 21.5822 27.6171 20.9354 27.4145C20.2901 27.2179 19.9218 26.5329 20.1185 25.8877C20.1623 25.7421 20.1903 25.6327 20.233 25.5065C20.0589 25.0945 20.0448 24.614 20.2151 24.1797C20.2436 24.0956 20.2523 24.0806 20.2613 23.9953C20.288 23.8098 20.3262 23.5956 20.4507 23.2756C20.6254 22.8337 20.8424 22.5972 20.9628 22.4757C21.156 21.9843 21.4859 21.7175 21.7224 21.5777C21.7389 21.4013 21.7743 21.2006 21.8683 20.9333C21.8375 20.6995 21.8181 20.3415 21.9912 19.8937C22.1501 19.488 22.3345 19.2729 22.4929 19.1031C22.5491 18.9797 22.5569 18.9139 22.5723 18.8524C22.6038 18.6847 22.6413 18.5154 22.7614 18.2028C22.8717 17.9248 22.9864 17.7348 23.0945 17.5911C22.9557 17.2397 22.9385 16.7473 23.0958 16.3356C23.3147 15.7736 23.7104 15.5147 23.9679 15.382C24.0763 15.1682 24.1947 15.0154 24.2956 14.8928C24.2557 14.6486 24.2362 14.2907 24.4125 13.8548C24.5283 13.5498 24.6169 13.405 24.6996 13.2618C24.7344 13.2015 24.7692 13.1412 24.8194 13.0194C25.0012 12.5565 25.2376 12.3212 25.3699 12.1965C25.3885 12.147 25.3896 12.1275 25.4002 12.0482C25.4187 11.9031 25.4474 11.7489 25.5126 11.5403C25.3694 11.1008 25.4002 10.7166 25.5563 10.3244C25.7409 9.84803 26.0173 9.59557 26.1793 9.46296C26.4549 8.89851 27.1282 8.62892 27.7247 8.85774C28.1018 9.00516 28.3639 9.31723 28.4626 9.6858L28.44 9.67274ZM22.4858 25.0686C22.4858 25.0686 22.4858 25.0686 22.4842 25.0626C22.4842 25.0626 22.4842 25.0626 22.4858 25.0686ZM18.9788 34.5459C18.9788 34.5459 18.9884 34.5816 18.9931 34.5994C19.0693 34.9549 19.0423 35.3062 18.9107 35.6473C18.6847 36.2303 18.2442 36.4885 17.9208 36.6134C17.9059 36.7002 17.8822 36.8021 17.8542 36.9116C18.0358 37.328 18.0467 37.7966 17.878 38.2368C17.7349 38.6065 17.5801 38.8136 17.4396 38.9787L16.169 38.9687L17.3894 39.1004C17.3857 39.3244 17.3694 39.5964 17.2176 39.9811C16.9516 40.6768 16.4033 40.9129 16.175 41.0123C15.5645 41.2778 14.8034 41.0294 14.5276 40.4279C14.2672 39.8606 14.4234 39.2071 14.9495 38.8877C14.9639 38.68 15.0049 38.4524 15.1179 38.1608C15.2309 37.8693 15.3516 37.6777 15.464 37.5265C15.3184 37.1259 15.3247 36.6974 15.4792 36.2992C15.5136 36.2135 15.5164 36.2 15.5254 36.1148C15.5505 35.9233 15.5903 35.7151 15.7132 35.3891C15.9294 34.8405 16.3311 34.58 16.6512 34.4432C16.7895 34.0558 17.1142 33.7458 17.5411 33.6505C18.1851 33.5098 18.8187 33.9007 18.9875 34.5308L18.9788 34.5459ZM13.5858 48.5171C13.6495 48.7549 13.6419 49.0118 13.555 49.2581L13.4392 49.563C13.2546 50.0394 12.9291 50.2986 12.651 50.4496C12.6576 50.6645 12.6262 50.9277 12.5147 51.2252C12.2701 51.8578 11.5632 52.1683 10.9306 51.9236C10.3417 51.6992 10.0309 51.0625 10.1895 50.4656C10.142 50.2171 10.1027 49.8326 10.2932 49.3547C10.528 48.7566 10.9804 48.4952 11.2784 48.3708C11.5294 47.762 12.2125 47.4579 12.8344 47.6863C13.2234 47.8305 13.493 48.1469 13.5933 48.5214L13.5858 48.5171Z" fill="#FDFB54" fill-opacity="0.8"/>
</svg>
