<svg width="238" height="12" viewBox="0 0 238 12" fill="none" xmlns="http://www.w3.org/2000/svg">
<path fill-rule="evenodd" clip-rule="evenodd" d="M200.425 6.2071C196.038 6.31138 191.647 6.41576 187.285 6.41576C165.564 6.41576 143.027 7.51998 121.219 8.73786C81.9186 10.9326 42.3523 12 3 12C1.34315 12 0 10.6569 0 9.00001C0 7.34316 1.34315 6.00001 3 6.00001C42.2445 6.00001 81.6991 4.93548 120.884 2.7472C142.702 1.52882 165.383 0.415755 187.285 0.415755C191.325 0.415755 195.515 0.315978 199.786 0.214297C211.557 -0.0659921 223.935 -0.360739 235.449 1.38018C237.087 1.6279 238.214 3.15676 237.966 4.79499C237.719 6.43323 236.19 7.56046 234.551 7.31275C223.597 5.65626 212.024 5.93137 200.425 6.2071Z" fill="#FDFB54"/>
</svg>
