<svg width="32" height="41" viewBox="0 0 32 41" fill="none" xmlns="http://www.w3.org/2000/svg">
<path d="M0.356266 14.3452C9.46861 15.2293 10.2573 18.6221 11.1974 28.3025C11.2167 28.5047 11.3865 28.6588 11.5896 28.6588C11.7927 28.6588 11.9616 28.5047 11.9817 28.3025C12.921 18.6212 13.7097 15.2284 22.8229 14.3452C23.0251 14.3259 23.1783 14.1561 23.1783 13.953C23.1783 13.7499 23.0242 13.581 22.8229 13.5609C13.5827 12.6645 12.9052 9.87915 11.9817 0.356266C11.9625 0.154061 11.7927 0 11.5896 0C11.3865 0 11.2176 0.154061 11.1974 0.356266C10.2731 9.87915 9.59554 12.6636 0.356266 13.5609C0.154061 13.5801 0 13.7499 0 13.953C0 14.1561 0.154061 14.325 0.356266 14.3452Z" fill="#FDFB54"/>
<path d="M25.3789 23.6642C25.3675 23.5451 25.2668 23.4541 25.1469 23.4541C25.027 23.4541 24.9263 23.5451 24.9149 23.6642C24.3687 29.2953 23.9678 30.9427 18.5039 31.4723C18.3849 31.4836 18.2938 31.5843 18.2938 31.7042C18.2938 31.8242 18.3849 31.9239 18.5039 31.9362C23.8925 32.4588 24.3591 34.4651 24.9149 40.1898C24.9263 40.3089 25.027 40.3999 25.1469 40.3999C25.2668 40.3999 25.3675 40.3089 25.3789 40.1898C25.9338 34.4651 26.4004 32.4588 31.7899 31.9362C31.9089 31.9248 32 31.8242 32 31.7042C32 31.5843 31.9089 31.4836 31.7899 31.4723C26.326 30.9418 25.9251 29.2953 25.3789 23.6642Z" fill="#FDFB54"/>
</svg>
